<?xml version="1.0" encoding="utf-8"?>
<!-- Generator: Adobe Illustrator 25.2.0, SVG Export Plug-In . SVG Version: 6.00 Build 0)  -->
<svg version="1.1" id="Layer_1" xmlns="http://www.w3.org/2000/svg" xmlns:xlink="http://www.w3.org/1999/xlink" x="0px" y="0px"
	 viewBox="0 0 300 82" style="enable-background:new 0 0 300 82;" xml:space="preserve">
<style type="text/css">
	.st0{fill:#111111;}
	.st1{fill:#69737C;}
	.st2{fill:#3BC4B2;}
</style>
<g>
	<path class="st0" d="M189.61,50.18c-1.83,0-3.59-0.3-5.25-0.95c-1.66-0.61-3.22-1.56-4.64-2.85l2.51-2.98
		c1.15,0.98,2.3,1.76,3.49,2.27c1.19,0.54,2.51,0.81,4,0.81c1.29,0,2.3-0.27,3.08-0.81c0.75-0.54,1.12-1.25,1.12-2.17v-0.07
		c0-0.44-0.07-0.81-0.2-1.15c-0.17-0.3-0.44-0.61-0.81-0.91c-0.41-0.31-0.95-0.58-1.66-0.81c-0.68-0.24-1.59-0.51-2.68-0.75
		c-1.29-0.3-2.41-0.64-3.39-1.02c-0.98-0.37-1.83-0.81-2.47-1.36c-0.68-0.51-1.19-1.15-1.52-1.93c-0.37-0.78-0.54-1.69-0.54-2.78
		v-0.07c0-1.02,0.2-1.97,0.61-2.81c0.41-0.85,0.95-1.56,1.66-2.17c0.71-0.58,1.56-1.05,2.54-1.39c0.98-0.34,2.07-0.51,3.25-0.51
		c1.73,0,3.32,0.24,4.71,0.75c1.39,0.51,2.68,1.25,3.9,2.24l-2.24,3.15c-1.08-0.78-2.17-1.39-3.22-1.83
		c-1.05-0.41-2.13-0.61-3.22-0.61c-1.22,0-2.17,0.27-2.85,0.81c-0.68,0.54-1.02,1.22-1.02,2v0.07c0,0.44,0.07,0.85,0.24,1.19
		c0.17,0.37,0.44,0.68,0.88,0.95c0.41,0.31,0.98,0.58,1.73,0.81c0.75,0.24,1.66,0.51,2.81,0.78c1.22,0.3,2.34,0.68,3.29,1.05
		c0.98,0.37,1.76,0.85,2.41,1.39c0.64,0.58,1.12,1.22,1.46,1.93c0.3,0.74,0.47,1.59,0.47,2.57v0.07c0,1.12-0.2,2.1-0.61,2.98
		c-0.44,0.88-1.02,1.63-1.73,2.24c-0.75,0.61-1.63,1.08-2.68,1.39C191.98,50.01,190.86,50.18,189.61,50.18 M167.92,50.18
		c-1.83,0-3.59-0.3-5.25-0.95c-1.66-0.61-3.22-1.56-4.64-2.85l2.51-2.98c1.15,0.98,2.3,1.76,3.49,2.27c1.19,0.54,2.51,0.81,4,0.81
		c1.29,0,2.3-0.27,3.08-0.81c0.75-0.54,1.12-1.25,1.12-2.17v-0.07c0-0.44-0.07-0.81-0.2-1.15c-0.17-0.3-0.44-0.61-0.81-0.91
		c-0.41-0.31-0.95-0.58-1.66-0.81c-0.68-0.24-1.59-0.51-2.68-0.75c-1.29-0.3-2.41-0.64-3.39-1.02c-0.98-0.37-1.83-0.81-2.47-1.36
		c-0.68-0.51-1.19-1.15-1.52-1.93c-0.37-0.78-0.54-1.69-0.54-2.78v-0.07c0-1.02,0.2-1.97,0.61-2.81c0.41-0.85,0.95-1.56,1.66-2.17
		c0.71-0.58,1.56-1.05,2.54-1.39c0.98-0.34,2.07-0.51,3.25-0.51c1.73,0,3.32,0.24,4.71,0.75c1.39,0.51,2.68,1.25,3.9,2.24
		l-2.24,3.15c-1.08-0.78-2.17-1.39-3.22-1.83c-1.05-0.41-2.13-0.61-3.22-0.61c-1.22,0-2.17,0.27-2.85,0.81
		c-0.68,0.54-1.02,1.22-1.02,2v0.07c0,0.44,0.07,0.85,0.24,1.19c0.17,0.37,0.44,0.68,0.88,0.95c0.41,0.31,0.98,0.58,1.73,0.81
		c0.75,0.24,1.66,0.51,2.81,0.78c1.22,0.3,2.34,0.68,3.29,1.05c0.98,0.37,1.76,0.85,2.41,1.39c0.64,0.58,1.12,1.22,1.46,1.93
		c0.3,0.74,0.47,1.59,0.47,2.57v0.07c0,1.12-0.2,2.1-0.61,2.98c-0.44,0.88-1.02,1.63-1.73,2.24c-0.75,0.61-1.63,1.08-2.68,1.39
		C170.29,50.01,169.17,50.18,167.92,50.18z M142.1,50.25c-1.83,0-3.49-0.31-5.01-0.98c-1.52-0.64-2.81-1.49-3.9-2.61
		c-1.08-1.12-1.93-2.41-2.54-3.9c-0.61-1.46-0.91-3.05-0.91-4.71v-0.07c0-1.66,0.3-3.25,0.91-4.74c0.61-1.46,1.46-2.78,2.58-3.9
		c1.12-1.12,2.41-2,3.93-2.64c1.52-0.64,3.19-0.98,5.02-0.98s3.49,0.31,5.01,0.95c1.52,0.64,2.81,1.52,3.9,2.64
		c1.08,1.12,1.93,2.41,2.54,3.86c0.61,1.49,0.91,3.08,0.91,4.74v0.07c0,1.66-0.3,3.25-0.91,4.71c-0.61,1.49-1.46,2.78-2.58,3.9
		c-1.12,1.12-2.41,2.03-3.93,2.68C145.59,49.91,143.93,50.25,142.1,50.25z M142.17,46.42c1.19,0,2.24-0.24,3.22-0.68
		c0.98-0.44,1.83-1.02,2.51-1.8c0.71-0.75,1.25-1.63,1.66-2.64c0.37-1.02,0.58-2.1,0.58-3.25v-0.07c0-1.15-0.2-2.24-0.58-3.29
		c-0.41-1.02-0.95-1.9-1.66-2.68c-0.71-0.75-1.56-1.36-2.54-1.8c-1.02-0.44-2.07-0.68-3.25-0.68c-1.15,0-2.24,0.2-3.22,0.64
		c-0.98,0.44-1.83,1.05-2.51,1.8c-0.71,0.78-1.25,1.66-1.63,2.68c-0.41,1.02-0.61,2.1-0.61,3.25v0.07c0,1.15,0.2,2.24,0.61,3.25
		c0.37,1.05,0.91,1.93,1.63,2.68c0.71,0.78,1.56,1.39,2.54,1.83C139.93,46.18,141.01,46.42,142.17,46.42z M106.28,26.13h10.57
		c1.49,0,2.81,0.2,3.96,0.61c1.15,0.44,2.1,1.02,2.88,1.76c0.64,0.64,1.12,1.42,1.46,2.27c0.34,0.85,0.51,1.8,0.51,2.85v0.07
		c0,0.98-0.14,1.83-0.41,2.61c-0.3,0.78-0.68,1.49-1.19,2.07c-0.51,0.61-1.08,1.12-1.76,1.53c-0.71,0.44-1.46,0.75-2.3,0.98
		l6.4,8.98h-4.91l-5.83-8.27h-0.07h-5.18v8.27h-4.13V26.13z M116.55,37.88c1.49,0,2.68-0.37,3.56-1.08
		c0.88-0.71,1.32-1.66,1.32-2.91v-0.07c0-1.29-0.44-2.27-1.29-2.91c-0.85-0.68-2.07-1.02-3.63-1.02h-6.1v8H116.55z M92.32,50.25
		c-1.73,0-3.35-0.31-4.81-0.95c-1.46-0.64-2.74-1.49-3.83-2.61c-1.08-1.08-1.93-2.37-2.54-3.86c-0.61-1.49-0.91-3.08-0.91-4.78
		v-0.07c0-1.69,0.3-3.29,0.91-4.78c0.61-1.46,1.46-2.78,2.54-3.9c1.08-1.12,2.37-2,3.86-2.64c1.49-0.64,3.15-0.95,4.95-0.95
		c1.08,0,2.07,0.1,2.98,0.27c0.88,0.17,1.69,0.44,2.44,0.75c0.75,0.34,1.42,0.75,2.07,1.19c0.64,0.44,1.22,0.95,1.8,1.49L99.1,32.5
		c-0.95-0.88-1.97-1.59-3.02-2.13c-1.05-0.54-2.27-0.81-3.63-0.81c-1.12,0-2.17,0.2-3.12,0.64c-0.98,0.44-1.8,1.05-2.51,1.8
		c-0.71,0.78-1.25,1.66-1.63,2.68c-0.37,1.02-0.58,2.1-0.58,3.25v0.07c0,1.15,0.2,2.24,0.58,3.25c0.37,1.05,0.91,1.93,1.63,2.71
		c0.71,0.78,1.52,1.36,2.51,1.8c0.95,0.44,2,0.68,3.12,0.68c1.46,0,2.68-0.27,3.73-0.85c1.05-0.54,2.07-1.29,3.08-2.24l2.68,2.71
		c-0.61,0.64-1.25,1.22-1.9,1.73c-0.68,0.51-1.39,0.95-2.17,1.32c-0.78,0.37-1.59,0.68-2.51,0.88
		C94.46,50.15,93.44,50.25,92.32,50.25z"/>
	<path class="st1" d="M279.87,26.13h10.57c1.49,0,2.81,0.2,3.96,0.61c1.15,0.44,2.1,1.02,2.88,1.76c0.64,0.64,1.12,1.42,1.46,2.27
		c0.34,0.85,0.51,1.8,0.51,2.85v0.07c0,0.98-0.14,1.83-0.41,2.61c-0.3,0.78-0.68,1.49-1.19,2.07c-0.51,0.61-1.08,1.12-1.76,1.53
		c-0.71,0.44-1.46,0.75-2.3,0.98l6.4,8.98h-4.91l-5.83-8.27h-0.07h-5.18v8.27h-4.13V26.13z M290.14,37.88
		c1.49,0,2.68-0.37,3.56-1.08c0.88-0.71,1.32-1.66,1.32-2.91v-0.07c0-1.29-0.44-2.27-1.29-2.91c-0.85-0.68-2.07-1.02-3.63-1.02h-6.1
		v8H290.14z M257.17,26.13h17.55v3.76H261.3v6.1h11.89v3.76H261.3v6.34h13.59v3.76h-17.72V26.13z M229.72,26.13h4.61l7.15,18.23
		l7.12-18.23h4.51l-9.86,23.89h-3.66L229.72,26.13z M214.27,50.25c-1.83,0-3.49-0.31-5.01-0.98c-1.53-0.64-2.81-1.49-3.9-2.61
		c-1.08-1.12-1.93-2.41-2.54-3.9c-0.61-1.46-0.91-3.05-0.91-4.71v-0.07c0-1.66,0.3-3.25,0.91-4.74c0.61-1.46,1.46-2.78,2.58-3.9
		c1.12-1.12,2.41-2,3.93-2.64c1.52-0.64,3.19-0.98,5.02-0.98s3.49,0.31,5.01,0.95c1.53,0.64,2.81,1.52,3.9,2.64
		c1.08,1.12,1.93,2.41,2.54,3.86c0.61,1.49,0.91,3.08,0.91,4.74v0.07c0,1.66-0.3,3.25-0.91,4.71c-0.61,1.49-1.46,2.78-2.58,3.9
		c-1.12,1.12-2.41,2.03-3.93,2.68C217.76,49.91,216.1,50.25,214.27,50.25z M214.34,46.42c1.19,0,2.24-0.24,3.22-0.68
		c0.98-0.44,1.83-1.02,2.51-1.8c0.71-0.75,1.25-1.63,1.66-2.64c0.37-1.02,0.58-2.1,0.58-3.25v-0.07c0-1.15-0.2-2.24-0.58-3.29
		c-0.41-1.02-0.95-1.9-1.66-2.68c-0.71-0.75-1.56-1.36-2.54-1.8c-1.02-0.44-2.07-0.68-3.25-0.68c-1.15,0-2.24,0.2-3.22,0.64
		c-0.98,0.44-1.83,1.05-2.51,1.8c-0.71,0.78-1.25,1.66-1.63,2.68c-0.41,1.02-0.61,2.1-0.61,3.25v0.07c0,1.15,0.2,2.24,0.61,3.25
		c0.37,1.05,0.91,1.93,1.63,2.68c0.71,0.78,1.56,1.39,2.54,1.83C212.1,46.18,213.19,46.42,214.34,46.42z"/>
</g>
<g>
	<path class="st2" d="M34.5,64.23c-6.63,0-12.75-2.15-17.71-5.79l-3.27,3.27c5.81,4.45,13.09,7.1,20.98,7.1
		c7.89,0,15.17-2.65,20.98-7.1l-3.27-3.27C47.25,62.08,41.13,64.23,34.5,64.23z"/>
	<path class="st2" d="M56.99,18.29l-3.26,3.25c2.45,3.66,3.88,8.07,3.88,12.81c0,4.74-1.43,9.14-3.88,12.81l3.26,3.25
		c3.25-4.53,5.16-10.07,5.16-16.06C62.15,28.36,60.24,22.82,56.99,18.29z"/>
	<path class="st2" d="M60.44,11.65L60.44,11.65c-0.07-0.08-0.14-0.16-0.21-0.24c-0.18-0.2-0.36-0.41-0.54-0.61l-0.01,0.01
		c-0.26-0.28-0.51-0.56-0.77-0.83c-0.53-0.53-1.09-1.05-1.66-1.55l-4.86,4.85C47.56,9.21,41.32,6.74,34.5,6.74
		c-6.82,0-13.06,2.47-17.88,6.55l-4.86-4.85c-0.57,0.5-1.12,1.01-1.65,1.55c-0.27,0.27-0.52,0.55-0.77,0.83L9.32,10.8
		c-0.19,0.2-0.37,0.41-0.55,0.62c-0.07,0.08-0.14,0.15-0.21,0.22l0,0C3.23,17.71,0,25.65,0,34.35C0,43.05,3.23,51,8.56,57.06
		l0.02,0.03c0.06,0.07,0.12,0.14,0.19,0.21l0.02,0.03l0.02,0.03l0.02,0.03l0.02,0.03l0.02,0.03l0.15,0.16l0.14,0.15l0.02,0.03
		l0.09,0.09c0.07,0.08,0.15,0.16,0.22,0.24l0.04,0.04c0.09,0.09,0.17,0.18,0.26,0.27l0,0l0.01,0.01l0.02,0.02
		c0.09,0.09,0.18,0.19,0.27,0.28l0.02,0.02l0.03,0.03l0.02,0.03l0.03,0.02l0.03,0.03l0.03,0.03l0.03,0.02l0.03,0.03l0.02,0.02
		l0.03,0.02l0.03,0.02l0.03,0.02l0.03,0.02l0.03,0.02l0.03,0.02l0.03,0.02l0.03,0.02l0.03,0.02l0.03,0.02l0.03,0.02l0.03,0.02
		l0.03,0.02l0.03,0.02h0l0.03,0.02l0.03,0.02l0.03,0.02l0.03,0.02h0l0.03,0.02l0.03,0.02h0l0.03,0.02l0.03,0.02l0.03,0.02l0.03,0.02
		l0.03,0.02L11,59.58l0.03,0.02l0.03,0.02l0.03,0.02l0.03,0.02l0.03,0.02l0.03,0.02l0.03,0.02l0.03,0.02l0.03,0.02l0.03,0.02
		l0.03,0.02l0.03,0.02l0.03,0.02l0.03,0.02h0l0.03,0.02l0.03,0.02l0.03,0.02l0.03,0.02l0.03,0.02l0.03,0.02h0l0.03,0.02l0.03,0.02
		l0.03,0.02l0.03,0.02l0.03,0.02l0.03,0.02l0.03,0.02l0.03,0.02l0.03,0.02l3.25-3.24h0l1.61-1.61c4.82,4.09,11.06,6.55,17.88,6.55
		c6.82,0,13.06-2.47,17.88-6.55l1.61,1.61h0l3.25,3.24l0.03-0.02l0.03-0.02l0.03-0.02l0.03-0.02l0.03-0.02l0.03-0.02l0.03-0.02
		l0.03-0.02l0.03-0.02h0l0.03-0.02l0.03-0.02l0.03-0.02l0.03-0.02l0.03-0.02l0.03-0.02h0l0.03-0.02l0.03-0.02l0.03-0.02l0.03-0.02
		l0.03-0.02l0.03-0.02l0.03-0.02l0.03-0.02l0.03-0.02l0.03-0.02l0.03-0.02l0.03-0.02l0.03-0.02L58,59.58l0.03-0.02l0.03-0.02
		l0.03-0.02l0.03-0.02l0.03-0.02l0.03-0.02h0l0.03-0.02l0.03-0.02h0l0.03-0.02l0.03-0.02l0.03-0.02l0.03-0.02h0l0.03-0.02l0.03-0.02
		l0.03-0.02l0.03-0.02l0.03-0.02l0.03-0.02l0.03-0.02l0.03-0.02l0.03-0.02l0.03-0.02l0.03-0.02l0.03-0.02l0.03-0.02l0.03-0.02
		l0.03-0.02l0.03-0.03l0.03-0.02l0.02-0.03l0.03-0.03l0.03-0.02l0.02-0.03l0.03-0.03l0.03-0.02c0.09-0.09,0.18-0.18,0.27-0.28
		l0.02-0.02l0.01-0.01l0,0c0.09-0.09,0.17-0.18,0.26-0.27l0.04-0.04c0.07-0.08,0.15-0.16,0.22-0.24l0.09-0.09l0.02-0.03l0.14-0.15
		l0.15-0.16l0.02-0.03l0.02-0.03l0.02-0.03l0.02-0.03l0.02-0.03c0.06-0.07,0.13-0.14,0.19-0.21l0.02-0.03
		C65.77,51,69,43.05,69,34.35C69,25.65,65.77,17.71,60.44,11.65z M34.5,11.27c5.57,0,10.66,1.98,14.65,5.26L34.5,31.15L19.85,16.52
		C23.84,13.25,28.93,11.27,34.5,11.27z M13.41,52.21l-1.61,1.61c-4.5-5.23-7.22-12.03-7.22-19.47c0-7.44,2.72-14.23,7.22-19.46
		l11,10.99l8.49,8.48l-4.01,4l0,0L16.63,49L13.41,52.21z M34.5,57.44c-5.57,0-10.67-1.97-14.66-5.24l6.18-6.17l0,0l8.48-8.47
		l4.64,4.63L49.16,52.2C45.17,55.47,40.07,57.44,34.5,57.44z M57.2,53.82l-1.61-1.61L52.37,49L41.71,38.35l0,0l-4.01-4l8.49-8.48
		l11-10.99c4.5,5.23,7.22,12.03,7.22,19.46C64.42,41.79,61.7,48.59,57.2,53.82z"/>
	<path class="st2" d="M12.01,18.29c-3.25,4.53-5.16,10.07-5.16,16.06c0,5.99,1.91,11.54,5.16,16.06l3.26-3.25
		c-2.45-3.67-3.88-8.07-3.88-12.81c0-4.74,1.43-9.14,3.88-12.81L12.01,18.29z"/>
	<path class="st2" d="M34.5,4.47c6.63,0,12.75,2.15,17.71,5.79L55.48,7C49.67,2.54,42.39-0.1,34.5-0.1c-7.89,0-15.17,2.65-20.98,7.1
		l3.27,3.27C21.75,6.63,27.87,4.47,34.5,4.47z"/>
	<path class="st2" d="M20.78,68.38l13.72,13.7l13.72-13.7c-4.24,1.71-8.87,2.65-13.72,2.65C29.65,71.02,25.02,70.08,20.78,68.38z"/>
</g>
</svg>
