<svg xmlns="http://www.w3.org/2000/svg" viewBox="0 0 137.12 52.76"><defs><style>.cls-1{fill:#c12906;}.cls-1,.cls-2{fill-rule:evenodd;}.cls-2{fill:#ed6637;}</style></defs><title>LogoCVA-1</title><g id="Layer_2" data-name="Layer 2"><g id="Layer_1-2" data-name="Layer 1"><path class="cls-1" d="M7.71,45A26.37,26.37,0,0,1,45,7.74Z"/><path class="cls-2" d="M26.36,26.38,7.71,45A26.4,26.4,0,0,0,45,45Z"/><polygon class="cls-2" points="71.39 52.76 45.01 0 66.08 0 81.92 31.65 71.39 52.76"/><polygon class="cls-1" points="76.7 0 71.39 10.62 81.92 31.65 97.77 0 76.7 0"/><polygon class="cls-2" points="100.21 21.12 84.36 52.76 105.43 52.76 110.74 42.14 100.21 21.12"/><polygon class="cls-1" points="100.21 21.12 110.74 0 137.12 52.76 116.06 52.76 100.21 21.12"/></g></g></svg>