<?xml version="1.0" encoding="UTF-8"?>
<!-- Generated by Pixelmator Pro 3.5.7 -->
<svg width="512" height="512" viewBox="0 0 512 512" xmlns="http://www.w3.org/2000/svg">
    <path id="Traado-copiar-6" fill="#33d5f4" fill-rule="evenodd" stroke="none" d="M 274.203918 501.037842 C 263.156769 500.985565 252.125992 495.861115 241.258606 484.949951 C 235.781433 479.450714 58.850311 312.34137 40.100407 294.551514 C 31.984411 286.851135 25.595877 278.0495 22.951971 266.946045 C 22.541178 265.220856 16.741282 164.153839 22.117987 114.205811 C 23.023149 105.797089 25.721313 97.839539 31.211737 91.500732 C 40.402637 80.889618 49.936646 70.516418 60.020329 60.760498 C 65.893784 55.077942 73.703835 51.427795 81.971504 51.143311 C 104.214638 50.377899 197.60614 51.078613 222.032043 50.860107 C 240.021362 50.699158 255.137772 56.169678 267.198059 69.666748 C 268.970398 71.650238 452.703552 261.681885 461.487122 272.397217 C 480.519379 295.615204 473.03894 325.356384 450.91095 344.588623 C 430.133148 362.647369 339.240326 455.240662 312.793762 481.557373 C 300.06546 494.223175 287.123474 501.098969 274.203918 501.037842 Z M 136.500793 217.000732 C 165.495728 217.000732 189.000793 193.495667 189.000793 164.500732 C 189.000793 135.505829 165.495728 112.000732 136.500793 112.000732 C 107.505882 112.000732 84.000801 135.505829 84.000801 164.500732 C 84.000801 193.495667 107.505882 217.000732 136.500793 217.000732 Z"/>
    <path id="Traado-copiar" fill="none" stroke="#000000" stroke-width="3" d="M 274.203918 501.037842 C 263.156769 500.985565 252.125992 495.861115 241.258606 484.949951 C 235.781433 479.450714 58.850311 312.34137 40.100407 294.551514 C 31.984411 286.851135 25.595877 278.0495 22.951971 266.946045 C 22.541178 265.220856 16.741282 164.153839 22.117987 114.205811 C 23.023149 105.797089 25.721313 97.839539 31.211737 91.500732 C 40.402637 80.889618 49.936646 70.516418 60.020329 60.760498 C 65.893784 55.077942 73.703835 51.427795 81.971504 51.143311 C 104.214638 50.377899 197.60614 51.078613 222.032043 50.860107 C 240.021362 50.699158 255.137772 56.169678 267.198059 69.666748 C 268.970398 71.650238 452.703552 261.681885 461.487122 272.397217 C 480.519379 295.615204 473.03894 325.356384 450.91095 344.588623 C 430.133148 362.647369 339.240326 455.240662 312.793762 481.557373 C 300.06546 494.223175 287.123474 501.098969 274.203918 501.037842 Z M 136.500793 217.000732 C 165.495728 217.000732 189.000793 193.495667 189.000793 164.500732 C 189.000793 135.505829 165.495728 112.000732 136.500793 112.000732 C 107.505882 112.000732 84.000801 135.505829 84.000801 164.500732 C 84.000801 193.495667 107.505882 217.000732 136.500793 217.000732 Z"/>
    <path id="Traado-copiar-5" fill="#33d5f4" fill-rule="evenodd" stroke="none" d="M 381.47049 433.820068 C 371.071686 437.549316 358.953491 436.506653 345.009644 429.970367 C 337.981934 426.676086 114.566307 330.158691 90.862663 319.854523 C 80.602432 315.394348 71.588837 309.308533 65.306778 299.778992 C 64.330711 298.29834 24.313631 205.310089 12.28285 156.535339 C 10.257474 148.324158 10.071275 139.923676 13.062586 132.089294 C 18.069994 118.97464 23.481188 105.966217 29.620029 93.349823 C 33.195724 86.001129 39.286343 79.899902 46.958111 76.804871 C 67.598038 68.478027 155.597 37.194702 178.475113 28.635223 C 195.324493 22.331268 211.400299 22.301758 227.349533 30.859985 C 229.693375 32.117706 467.340729 147.848602 479.25943 154.913544 C 505.08493 170.221893 508.227692 200.727905 494.011993 226.36853 C 480.663696 250.444641 426.921173 368.541077 411.070374 402.315918 C 403.44165 418.571228 393.631805 429.458801 381.47049 433.820068 Z M 154.925476 214.009766 C 182.171799 204.092896 196.220123 173.966156 186.303268 146.719818 C 176.386429 119.473541 146.259674 105.425171 119.013351 115.342041 C 91.767044 125.258881 77.718704 155.385651 87.635551 182.631958 C 97.552399 209.878265 127.679161 223.926605 154.925476 214.009766 Z"/>
    <path id="Traado-copiar-2" fill="none" stroke="#000000" stroke-width="3" d="M 381.47049 433.820068 C 371.071686 437.549316 358.953491 436.506653 345.009644 429.970367 C 337.981934 426.676086 114.566307 330.158691 90.862663 319.854523 C 80.602432 315.394348 71.588837 309.308533 65.306778 299.778992 C 64.330711 298.29834 24.313631 205.310089 12.28285 156.535339 C 10.257474 148.324158 10.071275 139.923676 13.062586 132.089294 C 18.069994 118.97464 23.481188 105.966217 29.620029 93.349823 C 33.195724 86.001129 39.286343 79.899902 46.958111 76.804871 C 67.598038 68.478027 155.597 37.194702 178.475113 28.635223 C 195.324493 22.331268 211.400299 22.301758 227.349533 30.859985 C 229.693375 32.117706 467.340729 147.848602 479.25943 154.913544 C 505.08493 170.221893 508.227692 200.727905 494.011993 226.36853 C 480.663696 250.444641 426.921173 368.541077 411.070374 402.315918 C 403.44165 418.571228 393.631805 429.458801 381.47049 433.820068 Z M 154.925476 214.009766 C 182.171799 204.092896 196.220123 173.966156 186.303268 146.719818 C 176.386429 119.473541 146.259674 105.425171 119.013351 115.342041 C 91.767044 125.258881 77.718704 155.385651 87.635551 182.631958 C 97.552399 209.878265 127.679161 223.926605 154.925476 214.009766 Z"/>
    <path id="Traado-copiar-3" fill="none" stroke="#000000" stroke-width="3" d="M 424.944244 387.78653 C 415.350983 393.264832 403.23584 394.342316 388.368805 390.32666 C 380.875824 388.302765 144.094299 332.047424 118.961479 326.015869 C 108.082619 323.405151 98.14917 318.976959 90.307762 310.683044 C 89.089409 309.394409 33.533043 224.767731 13.215391 178.82312 C 9.794926 171.088379 8.152828 162.847839 9.738271 154.613068 C 12.392269 140.828125 15.462362 127.077667 19.317127 113.586945 C 21.56241 105.728973 26.501038 98.662842 33.518806 94.282654 C 52.39922 82.498199 133.628998 36.409302 154.673203 24.007111 C 170.171936 14.873047 185.998383 12.05246 203.191437 17.711121 C 205.718063 18.542694 459.851471 91.248383 472.815918 96.136322 C 500.907349 106.72757 509.299683 136.224396 499.752411 163.944 C 490.787659 189.972229 458.368835 315.606812 448.623779 351.621033 C 443.933655 368.954071 436.163483 381.3797 424.944244 387.78653 Z M 163.67128 210.654724 C 188.781616 196.157257 197.385071 164.048737 182.887604 138.938385 C 168.390152 113.828064 136.281616 105.224609 111.171272 119.722076 C 86.060936 134.219513 77.457489 166.328064 91.954941 191.438385 C 106.452408 216.548737 138.560944 225.152191 163.67128 210.654724 Z"/>
</svg>
