<?xml version="1.0" encoding="UTF-8"?>
<!-- Generated by Pixelmator Pro 3.5.7 -->
<svg width="202" height="57" viewBox="0 0 202 57" xmlns="http://www.w3.org/2000/svg">
    <path id="Traado" fill="#82e315" stroke="none" d="M 27.187201 51.3759 C 26.1036 50.358101 26.261 48.6045 27.59 46.883701 C 28.5748 45.609699 32.6898 41.4361 35.659 38.697601 L 36.859798 37.5919 L 34.9487 33.495201 C 32.806999 28.9006 32.818001 28.8127 35.644299 28.497801 L 37.200298 28.3258 L 38.939301 30.954399 C 39.894798 32.400501 40.817402 33.583099 40.982201 33.583099 C 41.1469 33.583099 42.863998 32.206501 44.793301 30.5261 C 48.1432 27.6045 48.351898 27.4764 49.486801 27.630199 C 50.171501 27.7253 50.779202 27.6668 50.922001 27.494699 C 51.258801 27.091999 52.2253 27.6887 52.2253 28.3001 C 52.2253 28.552799 51.7421 29.1898 51.1563 29.716999 C 48.750999 31.877001 43.621799 36.9879 43.621799 37.222198 C 43.621799 37.361301 44.654202 39.144199 45.921001 41.187099 L 48.058998 44.6432 C 48.154202 44.796902 48.135899 44.994598 48.015099 45.1264 L 47.506199 45.5182 C 47.121799 45.942902 46.8619 46.276001 46.8106 46.693401 C 46.9021 46.9496 46.5177 47.0741 46.169899 47.235199 C 45.287601 47.645302 44.635899 47.1437 41.941399 43.980499 C 40.7076 42.530701 39.576302 41.3409 39.426201 41.3372 C 39.093102 41.329899 35.406399 45.360699 32.554401 48.849701 C 30.0392 51.924999 27.824301 51.987301 27.183599 51.383202 L 27.187201 51.3759 Z"/>
    <path id="path1" fill="#82e315" stroke="none" d="M 24.1959 27.458 C 24.181299 27.4361 24.163 27.414101 24.152 27.3958 C 18.5359 19.011902 14.4648 17.536499 14.6112 17.445 C 16.745701 16.072098 20.7509 17.419399 23.2258 19.619698 C 23.254999 19.645302 23.2843 19.678299 23.317301 19.7076 C 23.9104 20.212799 24.045799 20.395798 24.7561 21.1866 C 24.884199 21.1866 27.6227 16.635902 27.641001 16.606598 C 33.154598 7.911572 38.920799 4.235851 42.266998 4.243172 C 43.863201 4.243172 44.1012 4.79966 44.1012 4.79966 C 38.6791 7.629669 34.091801 12.674599 29.354401 21.9664 C 28.0327 24.627998 25.806801 28.922501 25.6457 29.215401 C 25.4041 29.654699 25.3638 28.999399 24.1996 27.458 L 24.1959 27.458 Z"/>
    <path id="path2" fill="#82e315" stroke="none" d="M 5.84307 27.9084 C 7.34411 27.538601 8.49735 27.0151 9.31377 26.334101 C 10.1265 25.653099 10.683 24.840401 10.9869 23.895798 C 11.2908 22.951302 11.4409 21.900497 11.4409 20.747299 L 11.4409 11.880199 C 11.4409 10.152199 11.6459 8.728001 12.0523 7.61137 C 12.4586 6.494751 13.1542 5.671001 14.1354 5.140152 C 15.1166 4.609291 16.467501 4.34203 18.180901 4.34203 L 18.180901 0 C 16.009899 0 14.183 0.237968 12.7039 0.710247 C 11.2249 1.182529 10.046 1.907421 9.15635 2.88126 C 8.26671 3.85511 7.62968 5.08889 7.23794 6.582611 C 6.84621 8.076332 6.65217 9.840969 6.65217 11.880199 L 6.65217 18.9753 C 6.65217 21.399002 6.16159 23.126999 5.17676 24.163101 C 4.19559 25.1992 2.46756 25.715401 0 25.715401 L 0 31.034901 C 2.46756 31.034901 4.19193 31.5511 5.17676 32.5872 C 6.15793 33.623299 6.65217 35.351299 6.65217 37.775002 L 6.65217 44.866501 C 6.65217 46.905701 6.84621 48.6703 7.23794 50.164001 C 7.62968 51.657799 8.26671 52.891499 9.15635 53.865398 C 10.046 54.839199 11.2249 55.564098 12.7039 56.0364 C 14.183 56.508701 16.006201 56.746601 18.180901 56.746601 L 18.180901 52.401001 C 16.467501 52.401001 15.1166 52.130001 14.1354 51.5919 C 13.1542 51.053699 12.4586 50.2299 12.0523 49.120602 C 11.6459 48.011299 11.4409 46.594501 11.4409 44.862801 L 11.4409 35.995701 C 11.4409 34.8424 11.2908 33.795399 10.9869 32.847198 C 10.683 31.902599 10.1265 31.0898 9.31377 30.408899 C 8.50101 29.7279 7.34411 29.204399 5.84307 28.8346 C 5.6527 28.787001 5.4367 28.754101 5.23167 28.7138 L 5.23167 28.0292 C 5.4367 27.988899 5.6527 27.952299 5.84307 27.9084 Z"/>
    <path id="path3" fill="#82e315" stroke="none" d="M 60.451599 27.9084 C 58.9505 27.538601 57.797298 27.0151 56.9809 26.334101 C 56.168098 25.653099 55.611599 24.840401 55.3078 23.895798 C 55.003899 22.951302 54.853802 21.900497 54.853802 20.747299 L 54.853802 11.880199 C 54.853802 10.152199 54.6488 8.728001 54.242401 7.61137 C 53.835999 6.494751 53.1404 5.671001 52.159302 5.140152 C 51.178101 4.609291 49.827202 4.34203 48.1138 4.34203 L 48.1138 0 C 50.284801 0 52.111698 0.237968 53.590698 0.710247 C 55.069801 1.182529 56.248699 1.907421 57.138302 2.88126 C 58.0243 3.85511 58.665001 5.08889 59.056702 6.582611 C 59.448502 8.076332 59.642502 9.840969 59.642502 11.880199 L 59.642502 18.9753 C 59.642502 21.399002 60.133099 23.126999 61.117901 24.163101 C 62.099098 25.1992 63.827099 25.715401 66.294701 25.715401 L 66.294701 28.2855 L 66.294701 28.461201 L 66.294701 31.0313 C 63.827099 31.0313 62.102699 31.547501 61.117901 32.583599 C 60.1367 33.619598 59.642502 35.347698 59.642502 37.771301 L 59.642502 44.862801 C 59.642502 46.902 59.448502 48.666698 59.056702 50.1604 C 58.665001 51.654099 58.028 52.887901 57.138302 53.861698 C 56.2523 54.835602 55.069801 55.560501 53.590698 56.0327 C 52.111698 56.505001 50.288399 56.743 48.1138 56.743 L 48.1138 52.397301 C 49.827202 52.397301 51.178101 52.1264 52.159302 51.5882 C 53.1404 51.049999 53.835999 50.226299 54.242401 49.117001 C 54.6488 48.007702 54.853802 46.590801 54.853802 44.8591 L 54.853802 35.992001 C 54.853802 34.838799 55.003899 33.791698 55.3078 32.843498 C 55.611599 31.898899 56.168098 31.086201 56.9809 30.405199 C 57.793598 29.7243 58.9505 29.200701 60.451599 28.830999 C 60.641998 28.7834 60.858002 28.750401 61.063 28.7101 L 61.063 28.025499 C 60.858002 27.985201 60.641998 27.948601 60.451599 27.904699 L 60.451599 27.9084 Z"/>
    <path id="path4" fill="#82e315" stroke="none" d="M 94.115303 2.280849 L 98.164398 2.280849 L 98.164398 18.118698 C 98.157097 19.572098 97.849602 20.820499 97.241798 21.863899 C 96.634102 22.907303 95.784698 23.712799 94.693703 24.2729 C 93.6064 24.833099 92.339699 25.115 90.893501 25.115 C 89.571899 25.115 88.385696 24.876999 87.334999 24.404701 C 86.284203 23.9324 85.449501 23.2295 84.830803 22.299599 C 84.215698 21.369698 83.908203 20.209099 83.908203 18.825199 L 87.9683 18.825199 C 87.9757 19.432999 88.111099 19.960197 88.371101 20.399498 C 88.630997 20.838799 88.993401 21.175697 89.454697 21.41 C 89.916 21.644302 90.446899 21.761398 91.051003 21.761398 C 91.702599 21.761398 92.255501 21.622299 92.713097 21.347702 C 93.167099 21.073097 93.5149 20.663101 93.7528 20.1213 C 93.990799 19.579399 94.115303 18.913101 94.122597 18.118698 L 94.122597 2.280849 L 94.115303 2.280849 Z"/>
    <path id="path5" fill="#82e315" stroke="none" d="M 114.836998 8.475372 C 114.734001 7.516171 114.302002 6.765648 113.544998 6.231129 C 112.787003 5.696609 111.802002 5.429352 110.589996 5.429352 C 109.740997 5.429352 109.008003 5.557491 108.401001 5.81377 C 107.792999 6.070042 107.328003 6.417839 107.005997 6.85717 C 106.683998 7.296501 106.518997 7.798069 106.512001 8.36554 C 106.512001 8.834152 106.621002 9.240532 106.836998 9.588341 C 107.053001 9.93248 107.349998 10.225399 107.723 10.463299 C 108.097 10.701302 108.511002 10.902702 108.964996 11.063698 C 109.417999 11.2248 109.875999 11.360298 110.341003 11.4701 L 112.454002 11.997299 C 113.303001 12.195 114.123001 12.462299 114.914001 12.799099 C 115.700996 13.135899 116.411003 13.5606 117.037003 14.0732 C 117.663002 14.585701 118.161003 15.208099 118.527 15.932999 C 118.892998 16.657898 119.075996 17.510902 119.075996 18.484699 C 119.075996 19.8027 118.739998 20.963303 118.066002 21.9664 C 117.391998 22.9659 116.417999 23.749397 115.143997 24.309502 C 113.870003 24.869698 112.333 25.1516 110.530998 25.1516 C 108.730003 25.1516 107.258003 24.8806 105.973 24.338799 C 104.684998 23.797001 103.681999 23.006203 102.959999 21.962799 C 102.238998 20.923 101.847 19.652599 101.789001 18.158897 L 105.805 18.158897 C 105.863998 18.942398 106.105003 19.597702 106.529999 20.117599 C 106.955002 20.637501 107.511002 21.025497 108.195999 21.2855 C 108.879997 21.545403 109.649002 21.669899 110.499001 21.669899 C 111.348 21.669899 112.164001 21.534401 112.834 21.2672 C 113.503998 20.999901 114.030998 20.626499 114.412003 20.1469 C 114.792999 19.667297 114.987 19.1035 114.994003 18.459099 C 114.987 17.873299 114.815002 17.386398 114.477997 17.001999 C 114.140999 16.617599 113.668999 16.295403 113.065002 16.0355 C 112.460999 15.775501 111.753998 15.541199 110.948997 15.336201 L 108.386002 14.6772 C 106.529999 14.201302 105.065002 13.476402 103.992996 12.506199 C 102.919998 11.535999 102.382004 10.243698 102.382004 8.629131 C 102.382004 7.303822 102.744003 6.139599 103.466003 5.143791 C 104.186996 4.14798 105.171997 3.37183 106.419998 2.819012 C 107.665001 2.26619 109.078003 1.987949 110.655998 1.987949 C 112.234001 1.987949 113.657997 2.26619 114.862999 2.819012 C 116.067001 3.37183 117.014999 4.140659 117.707001 5.11816 C 118.394997 6.095669 118.750999 7.21962 118.773003 8.490009 L 114.844002 8.490009 L 114.836998 8.475372 Z"/>
    <path id="path6" fill="#82e315" stroke="none" d="M 142.830002 13.545998 C 142.830002 15.973198 142.376007 18.049103 141.470993 19.7771 C 140.567001 21.5051 139.332993 22.826797 137.776993 23.742001 C 136.218002 24.657303 134.453003 25.118601 132.479996 25.118601 C 130.505997 25.118601 128.742004 24.657303 127.181999 23.7384 C 125.623001 22.819401 124.391998 21.494102 123.487999 19.766098 C 122.584 18.038101 122.129997 15.9659 122.129997 13.545998 C 122.129997 11.125999 122.584 9.042831 123.487999 7.3148 C 124.391998 5.586781 125.625999 4.265129 127.181999 3.349861 C 128.742004 2.434589 130.505997 1.973301 132.479996 1.973301 C 134.453003 1.973301 136.218002 2.430931 137.776993 3.349861 C 139.337006 4.265129 140.567001 5.586781 141.470993 7.3148 C 142.376007 9.042831 142.830002 11.118698 142.830002 13.545998 Z M 138.725998 13.545998 C 138.725998 11.836201 138.457993 10.393799 137.927002 9.218559 C 137.397003 8.0397 136.660995 7.150051 135.723007 6.545979 C 134.785995 5.941898 133.703003 5.638031 132.479996 5.638031 C 131.257004 5.638031 130.173004 5.941898 129.235992 6.545979 C 128.298996 7.150051 127.563004 8.043358 127.031998 9.218559 C 126.500999 10.393799 126.234001 11.836201 126.234001 13.545998 C 126.234001 15.255699 126.500999 16.698097 127.031998 17.873299 C 127.563004 19.0485 128.298996 19.941799 129.235992 20.545898 C 130.173004 21.150002 131.257004 21.453899 132.479996 21.453899 C 133.703003 21.453899 134.785995 21.150002 135.723007 20.545898 C 136.660995 19.941799 137.397003 19.0485 137.927002 17.873299 C 138.457993 16.698097 138.725998 15.251999 138.725998 13.545998 Z"/>
    <path id="path7" fill="#82e315" stroke="none" d="M 165.210007 2.280849 L 165.210007 24.8074 L 161.580994 24.8074 L 150.968002 9.463879 L 150.781006 9.463879 L 150.781006 24.8074 L 146.699005 24.8074 L 146.699005 2.280849 L 150.348999 2.280849 L 160.951996 17.635399 L 161.149002 17.635399 L 161.149002 2.280849 L 165.210007 2.280849 Z"/>
    <path id="path8" fill="#82e315" stroke="none" d="M 96.9636 38.097198 C 96.861099 37.138 96.4291 36.387402 95.671204 35.852901 C 94.913399 35.318401 93.928596 35.051201 92.716797 35.051201 C 91.867401 35.051201 91.135201 35.179298 90.527397 35.4356 C 89.919701 35.691799 89.454697 36.0396 89.132599 36.479 C 88.810402 36.918301 88.645599 37.419899 88.638298 37.987301 C 88.638298 38.456001 88.7481 38.862301 88.964203 39.210098 C 89.180199 39.554298 89.4767 39.847198 89.850098 40.085098 C 90.223602 40.323101 90.637299 40.524502 91.091202 40.685501 C 91.545197 40.8466 92.0028 40.982101 92.467796 41.0919 L 94.5802 41.619099 C 95.429604 41.816799 96.249702 42.084099 97.040497 42.420898 C 97.827599 42.757702 98.537903 43.1824 99.163902 43.694901 C 99.789902 44.2075 100.288002 44.829899 100.653999 45.554798 C 101.019997 46.279701 101.203003 47.132702 101.203003 48.106499 C 101.203003 49.4245 100.865997 50.585098 100.193001 51.5882 C 99.518997 52.5877 98.545197 53.371201 97.271103 53.931301 C 95.997101 54.491501 94.459396 54.773399 92.658203 54.773399 C 90.856903 54.773399 89.385201 54.502399 88.100098 53.960602 C 86.811401 53.4188 85.808296 52.627998 85.087097 51.584599 C 84.365799 50.5448 83.974098 49.274399 83.915497 47.780701 L 87.931702 47.780701 C 87.990303 48.564201 88.231903 49.219501 88.656601 49.739399 C 89.081299 50.2593 89.637802 50.647301 90.322403 50.907299 C 91.007004 51.167198 91.775902 51.291698 92.625198 51.291698 C 93.474602 51.291698 94.291 51.1562 94.960999 50.889 C 95.630997 50.6217 96.158203 50.248299 96.538902 49.7687 C 96.919701 49.289101 97.113701 48.7253 97.121002 48.080898 C 97.113701 47.495098 96.941597 47.008202 96.604797 46.623798 C 96.267998 46.239399 95.7957 45.917198 95.191597 45.657299 C 94.587601 45.397301 93.880997 45.162998 93.0755 44.958 L 90.512802 44.299 C 88.656601 43.823101 87.1922 43.098202 86.119499 42.127998 C 85.046799 41.157799 84.508598 39.865501 84.508598 38.2509 C 84.508598 36.925598 84.871101 35.761398 85.5923 34.765598 C 86.313499 33.769798 87.298401 32.993599 88.546799 32.4408 C 89.795197 31.888 91.204697 31.609699 92.7826 31.609699 C 94.360603 31.609699 95.784698 31.888 96.989197 32.4408 C 98.193703 32.993599 99.141899 33.762501 99.8339 34.740002 C 100.522003 35.717499 100.876999 36.8414 100.899002 38.111801 L 96.970901 38.111801 L 96.9636 38.097198 Z"/>
    <path id="path9" fill="#82e315" stroke="none" d="M 112.022003 54.762299 C 110.334 54.762299 108.888 54.392601 107.682999 53.653 C 106.474998 52.913502 105.549004 51.888401 104.901001 50.577702 C 104.252998 49.270699 103.927002 47.758701 103.927002 46.052601 C 103.927002 44.3466 104.257004 42.819901 104.915001 41.5056 C 105.573997 40.191299 106.508003 39.162498 107.716003 38.426601 C 108.920998 37.6908 110.351997 37.320999 112 37.320999 C 113.373001 37.320999 114.584 37.573601 115.646004 38.075199 C 116.704002 38.576698 117.550003 39.283298 118.18 40.198601 C 118.808998 41.113899 119.167999 42.175598 119.260002 43.394699 L 115.456001 43.394699 C 115.302002 42.581902 114.935997 41.901001 114.361 41.355499 C 113.786003 40.810001 113.016998 40.5354 112.057999 40.5354 C 111.245003 40.5354 110.528 40.7551 109.913002 41.190701 C 109.297997 41.6264 108.818001 42.252399 108.477997 43.065201 C 108.137001 43.877998 107.964996 44.855499 107.964996 45.990398 C 107.964996 47.125301 108.134003 48.128502 108.470001 48.955898 C 108.806999 49.779598 109.282997 50.416599 109.894997 50.8596 C 110.505997 51.302601 111.226997 51.526001 112.055 51.526001 C 112.639999 51.526001 113.167999 51.412498 113.633003 51.189098 C 114.097 50.965801 114.488998 50.639999 114.804001 50.215302 C 115.119003 49.7906 115.334999 49.274399 115.452003 48.662998 L 119.255997 48.662998 C 119.161003 49.860199 118.808998 50.914501 118.202003 51.837101 C 117.594002 52.7561 116.763 53.477299 115.716003 53.9935 C 114.665001 54.509701 113.434998 54.769699 112.017998 54.769699 L 112.022003 54.762299 Z"/>
    <path id="path10" fill="#82e315" stroke="none" d="M 126.515999 44.533298 L 126.515999 54.4328 L 122.536003 54.4328 L 122.536003 31.9062 L 126.428001 31.9062 L 126.428001 40.407299 L 126.625999 40.407299 C 127.021004 39.455399 127.636002 38.701199 128.466995 38.148399 C 129.298004 37.5956 130.360001 37.317299 131.651993 37.317299 C 132.824005 37.317299 133.848999 37.562599 134.720001 38.0532 C 135.591995 38.5438 136.268997 39.261299 136.748993 40.209599 C 137.227997 41.157799 137.470001 42.311001 137.470001 43.672901 L 137.470001 54.429199 L 133.487 54.429199 L 133.487 44.287998 C 133.487 43.153099 133.194 42.267101 132.612 41.6301 C 132.029999 40.9967 131.212997 40.6782 130.166 40.6782 C 129.462997 40.6782 128.832993 40.831902 128.281006 41.135799 C 127.727997 41.439701 127.295998 41.879002 126.985001 42.4501 C 126.672997 43.021301 126.515999 43.7132 126.515999 44.529598 L 126.515999 44.533298 Z"/>
    <path id="path11" fill="#82e315" stroke="none" d="M 148.998001 54.762299 C 147.302994 54.762299 145.843002 54.4072 144.615997 53.7006 C 143.386002 52.993999 142.445007 51.987202 141.781998 50.687599 C 141.123001 49.384201 140.794006 47.850201 140.794006 46.085602 C 140.794006 44.320999 141.126999 42.819901 141.789993 41.5056 C 142.451996 40.191299 143.382004 39.162498 144.578995 38.426601 C 145.772995 37.6908 147.179001 37.320999 148.792999 37.320999 C 149.832993 37.320999 150.817993 37.489399 151.748001 37.822498 C 152.673996 38.155701 153.498001 38.671902 154.212006 39.3675 C 154.925995 40.063099 155.488998 40.9491 155.899994 42.025501 C 156.309998 43.098202 156.514999 44.3759 156.514999 45.858601 L 156.514999 47.081402 L 142.667999 47.081402 L 142.667999 44.3978 L 152.699997 44.3978 C 152.692001 43.636299 152.528 42.955399 152.205994 42.358601 C 151.882996 41.761902 151.432999 41.2896 150.858002 40.9454 C 150.283005 40.601299 149.613007 40.429199 148.852005 40.429199 C 148.039001 40.429199 147.322006 40.6269 146.707001 41.0187 C 146.091995 41.4104 145.612 41.923 145.270996 42.560001 C 144.931 43.193298 144.755005 43.889 144.748001 44.643101 L 144.748001 46.986198 C 144.748001 47.9674 144.927002 48.809399 145.285995 49.512402 C 145.645004 50.215302 146.145996 50.746101 146.794006 51.119598 C 147.442001 51.493 148.197006 51.676102 149.061005 51.676102 C 149.639008 51.676102 150.162994 51.591801 150.634995 51.427101 C 151.104004 51.262402 151.509995 51.017101 151.858002 50.694901 C 152.201996 50.3727 152.462006 49.973701 152.638 49.4977 L 156.354004 49.9151 C 156.119003 50.896198 155.673004 51.752899 155.016998 52.481499 C 154.362 53.209999 153.522995 53.7775 152.505997 54.176601 C 151.488007 54.5756 150.320007 54.777 149.009003 54.777 L 148.998001 54.762299 Z"/>
    <path id="path12" fill="#82e315" stroke="none" d="M 159.875 54.432899 L 159.875 37.536999 L 163.679001 37.536999 L 163.679001 40.407299 L 163.876999 40.407299 C 164.229004 39.4408 164.811005 38.682899 165.626999 38.137402 C 166.440002 37.5919 167.414001 37.317402 168.541 37.317402 C 169.669006 37.317402 170.649994 37.5956 171.440994 38.148399 C 172.231995 38.701199 172.783997 39.455399 173.106995 40.407299 L 173.281998 40.407299 C 173.656006 39.4701 174.289001 38.719501 175.179001 38.159401 C 176.067993 37.5993 177.126007 37.317402 178.352997 37.317402 C 179.908997 37.317402 181.175995 37.807899 182.156998 38.792801 C 183.138 39.773899 183.632004 41.209099 183.632004 43.094501 L 183.632004 54.432899 L 179.638 54.432899 L 179.638 43.709599 C 179.638 42.662498 179.360001 41.8937 178.802994 41.406799 C 178.246994 40.9198 177.565994 40.674599 176.757004 40.674599 C 175.798004 40.674599 175.046997 40.9748 174.509003 41.571499 C 173.970993 42.168301 173.699997 42.944401 173.699997 43.896301 L 173.699997 54.432899 L 169.792999 54.432899 L 169.792999 43.5448 C 169.792999 42.6735 169.529999 41.974201 169.005997 41.454399 C 168.483002 40.934502 167.798004 40.674599 166.955994 40.674599 C 166.384995 40.674599 165.865005 40.820999 165.393005 41.110199 C 164.923996 41.399399 164.550995 41.805801 164.272003 42.333 C 163.994003 42.856602 163.854996 43.467999 163.854996 44.163601 L 163.854996 54.436501 L 159.875 54.436501 L 159.875 54.432899 Z"/>
    <path id="path13" fill="#82e315" stroke="none" d="M 192.542999 54.7733 C 191.473999 54.7733 190.511002 54.5793 189.654999 54.194901 C 188.802002 53.810501 188.123993 53.239399 187.630005 52.485199 C 187.136002 51.730999 186.886993 50.797401 186.886993 49.691799 C 186.886993 48.739899 187.063004 47.9491 187.414001 47.326698 C 187.766006 46.7043 188.244995 46.206402 188.856995 45.8293 C 189.464005 45.455898 190.153 45.170399 190.917999 44.976299 C 191.682999 44.782299 192.477005 44.6395 193.296997 44.551601 C 194.285995 44.4491 195.091003 44.353901 195.705994 44.269699 C 196.322006 44.185501 196.772003 44.053699 197.054001 43.874298 C 197.335999 43.694901 197.477997 43.412998 197.477997 43.032299 L 197.477997 42.9664 C 197.477997 42.139 197.233002 41.494598 196.742996 41.040699 C 196.251999 40.5867 195.542007 40.359699 194.619003 40.359699 C 193.645004 40.359699 192.873001 40.571999 192.304993 40.9967 C 191.738007 41.421398 191.352997 41.923 191.156006 42.5051 L 187.440002 41.977901 C 187.733002 40.952801 188.216003 40.0924 188.893005 39.396801 C 189.567001 38.704899 190.393997 38.185001 191.367996 37.833599 C 192.341995 37.485802 193.421997 37.310001 194.600998 37.310001 C 195.414001 37.310001 196.225998 37.405201 197.031998 37.5956 C 197.837006 37.785999 198.576996 38.1008 199.242996 38.536499 C 199.908997 38.972198 200.447998 39.565201 200.854004 40.312099 C 201.259995 41.058998 201.464996 41.996201 201.464996 43.116501 L 201.464996 54.421902 L 197.636002 54.421902 L 197.636002 52.1008 L 197.503998 52.1008 C 197.261993 52.569401 196.921997 53.008701 196.485992 53.4151 C 196.050995 53.821499 195.505005 54.147301 194.845993 54.392601 C 194.190994 54.637901 193.421997 54.762402 192.542999 54.762402 L 192.542999 54.7733 Z M 193.576004 51.848202 C 194.373993 51.848202 195.069 51.687099 195.654999 51.368599 C 196.240997 51.049999 196.695007 50.625401 197.013 50.098202 C 197.332001 49.570999 197.492996 48.996201 197.492996 48.370098 L 197.492996 46.378502 C 197.369003 46.480999 197.156006 46.576199 196.860001 46.664101 C 196.563004 46.7519 196.229996 46.8288 195.863998 46.894699 C 195.498001 46.960602 195.134995 47.019199 194.776993 47.070499 C 194.417999 47.1217 194.106995 47.1656 193.843002 47.202202 C 193.25 47.282799 192.718994 47.4146 192.246994 47.597599 C 191.778 47.780701 191.408005 48.036999 191.134003 48.362801 C 190.863007 48.688599 190.727005 49.109699 190.727005 49.6222 C 190.727005 50.354401 190.994995 50.9109 191.529007 51.284302 C 192.063995 51.657799 192.744995 51.844501 193.576004 51.844501 L 193.576004 51.848202 Z"/>
</svg>
