<?xml version="1.0" encoding="UTF-8"?>
<!-- Generated by Pixelmator Pro 3.5.7 -->
<svg width="512" height="512" viewBox="0 0 512 512" xmlns="http://www.w3.org/2000/svg">
    <path id="Retngulo-arredondado" fill="#82e315" fill-rule="evenodd" stroke="none" d="M 0 298 C 0 310.145935 0 316.218933 2.55008 320.77243 C 4.352334 323.990601 7.00942 326.647644 10.227575 328.449921 C 14.781071 331 20.854048 331 33 331 L 479 331 C 491.145966 331 497.218933 331 501.77243 328.449921 C 504.990601 326.647644 507.647675 323.990601 509.449921 320.77243 C 512 316.218933 512 310.145935 512 298 L 512 214 C 512 201.854065 512 195.781067 509.449921 191.22757 C 507.647675 188.009399 504.99057 185.352325 501.77243 183.550079 C 497.218933 181 491.145966 181 479 181 L 33 181 C 20.854048 181 14.781071 181 10.227575 183.550079 C 7.00942 185.352325 4.352334 188.009399 2.55008 191.22757 C 0 195.781067 0 201.854034 0 214 Z"/>
    <path id="Retngulo-arredondado-copiar" fill="#82e315" fill-rule="evenodd" stroke="none" d="M 298 512 C 310.145966 512 316.218933 512 320.77243 509.449921 C 323.99057 507.647675 326.647675 504.99057 328.449921 501.77243 C 331 497.218933 331 491.145966 331 479 L 331 33 C 331 20.854034 331 14.781067 328.449921 10.22757 C 326.647675 7.009399 323.99057 4.352325 320.77243 2.550079 C 316.218933 0 310.145966 0 298 0 L 214 0 C 201.85405 0 195.781067 0 191.22757 2.550079 C 188.009415 4.352325 185.352325 7.00943 183.550079 10.22757 C 181 14.781067 181 20.854034 181 33 L 181 479 C 181 491.145966 181 497.218933 183.550079 501.77243 C 185.352325 504.99057 188.009415 507.647675 191.22757 509.449921 C 195.781067 512 201.854034 512 214 512 Z"/>
</svg>
