<?xml version="1.0" encoding="utf-8"?>
<!-- Generator: Adobe Illustrator 28.2.0, SVG Export Plug-In . SVG Version: 6.00 Build 0)  -->
<svg version="1.1" xmlns="http://www.w3.org/2000/svg" xmlns:xlink="http://www.w3.org/1999/xlink" x="0px" y="0px"
	 viewBox="0 0 512 512" style="enable-background:new 0 0 512 512;" xml:space="preserve">
<style type="text/css">
	.st0{fill:#33D5F4;}
	.st1{display:none;}
	.st2{display:inline;fill:#28EA44;}
	.st3{display:inline;fill:#FFFFFF;}
	.st4{display:inline;fill:#2828EA;}
	.st5{display:inline;fill:#ED26C8;}
	.st6{fill:#ED26C8;}
	.st7{display:inline;}
	.st8{fill:#FFFFFF;}
</style>
<g id="Camada_1">
	<g>
		<g>
			<path class="st0" d="M258.6,470.4c-6-5-197.5-157.3-217.8-173.5c-8.8-7-15.9-15.3-19.6-26.2c-0.3-1-6-39.2-10.1-80.2
				c-1.9,35.6-2.2,67.1-2.1,68c1.8,10.9,7.2,19.9,14.4,28.1c16.6,18.9,169.7,191.9,174.5,197.7c9.6,11.5,19.7,17.5,30.2,18.7
				c12.3,1.4,25-3.8,38-14.6c2.5-2.1,5.5-4.6,9-7.6C269.9,478.6,264.3,475.2,258.6,470.4z"/>
		</g>
		<g>
			<path class="st0" d="M323.1,418.8c-6.5-3.8-215.3-117.1-237.5-129.2c-9.6-5.2-17.8-11.9-23.1-21.7c-0.8-1.5-31.8-95.2-39.3-143.5
				c-1.3-8.1-0.7-16.3,2.8-23.6c4.8-9.9,9.9-19.7,15.3-29.2c-4.9,6.1-9.6,12.4-14.2,18.7c-4.6,6.4-6.4,14.1-6.4,22.2
				c-0.2,47.8,15.4,143.6,15.9,145.2c3.6,10.4,10.6,18.4,19.1,25.2c19.7,15.7,200.4,159.5,206.2,164.4c11.5,9.7,22.5,13.9,33,13.2
				c12.3-0.8,24-8.1,34.9-21c2.9-3.5,6.8-8,11.3-13.4C335.4,424.9,329.4,422.5,323.1,418.8z"/>
		</g>
		<path class="st0" d="M483.3,157c-11-7.8-226.3-137.6-228.5-139c-14.7-9.7-30.2-11.2-46.9-7c-22.6,5.8-109.5,26.5-130,32.3
			c-7.6,2.2-13.9,7.3-17.9,13.9c-6.8,11.3-12.9,23-18.7,34.8c-3.4,7.1-3.8,15-2.5,23c8.1,47.1,40.1,138.7,40.9,140.2
			c5.4,9.6,13.6,16.2,23.2,21.5c22.1,12.1,225.1,122.3,231.6,126.1c13,7.5,24.5,9.7,34.8,7.3c12-2.9,22.2-12.2,30.7-26.7
			c17.6-30.2,77.7-136.1,92.3-157.5C507.9,203,507.1,174,483.3,157z M170.8,182.7c-26.8,7.1-54.3-8.9-61.5-35.7
			c-7.2-26.8,8.7-54.2,35.5-61.3c26.8-7.1,54.3,8.9,61.5,35.7C213.5,148.2,197.6,175.6,170.8,182.7z"/>
	</g>
</g>
<g id="bkp" class="st1">
	<path class="st2" d="M224.9,57.7c-23.8-2-114.8-11-136.6-12.2c-8.1-0.5-16,2.4-22.2,7.4c-10.7,8.6-20.8,17.9-30.7,27.4
		c-5.9,5.7-9.2,13.2-10.8,21.3c-9.5,48.2-12.4,147.3-12.2,149c1.6,11.1,7.1,20.2,14.4,28.5c16.8,19,175,197.8,179.9,203.6
		c9.7,11.6,20,17.6,30.7,18.6c12.6,1.2,25.8-4.3,39.3-15.5c28-23.3,124.5-105.5,146.3-121.2c23.2-16.8,33-45.1,16.5-69.5
		c-7.6-11.2-170.6-213-172.1-215.1C256.7,65.8,242.4,59.1,224.9,57.7z"/>
	<path class="st3" d="M225.5,53C201,51,107.8,41.8,85.5,40.5C77.3,40,69.1,43,62.8,48.1c-10.9,8.8-21.4,18.3-31.5,28.1
		c-6,5.8-9.4,13.5-11.1,21.9C10.5,147.5,7.5,249,7.8,250.7c1.7,11.3,7.3,20.7,14.7,29.2c17.2,19.5,179.3,202.7,184.3,208.7
		c9.9,11.9,20.5,18,31.5,19.1c12.9,1.2,26.4-4.4,40.2-15.9c28.7-23.9,127.6-108.1,149.9-124.2c23.8-17.2,33.8-46.2,16.9-71.2
		C437.5,284.8,270.5,78.1,268.9,76C258.1,61.4,243.4,54.5,225.5,53z M264.9,86.8c1.6,2.1,159.5,197.6,167.2,208.8
		c16.5,24.1,7.4,51.7-14.9,67.8c-21,15.1-113.6,94-140.6,116.4c-13,10.8-25.7,16-38,14.6c-10.5-1.2-20.6-7.2-30.2-18.7
		c-4.8-5.8-157.9-178.8-174.5-197.7c-7.2-8.2-12.7-17.2-14.4-28.1c-0.3-1.7,1-98.7,9.5-145.8c1.4-7.9,4.5-15.2,10.2-20.7
		c9.5-9.2,19.2-18.1,29.5-26.4c6-4.8,13.6-7.5,21.5-6.9c21.2,1.6,109.9,11.8,133.2,14.1C240.4,65.9,254.4,72.6,264.9,86.8z"/>
	<path class="st4" d="M211.8,33.7C188,35.9,96.6,42.8,74.9,45.4c-8.1,1-15.4,5.2-20.6,11.2c-9,10.4-17.5,21.3-25.5,32.4
		c-4.8,6.6-6.8,14.6-6.9,22.9c-1,49.3,13.4,147.6,13.9,149.2c3.5,10.6,10.5,18.7,19.1,25.6c19.9,15.9,207.2,164.8,213,169.7
		c11.6,9.8,22.8,13.9,33.6,13c12.6-1,24.7-8.8,36.1-22.2c23.6-27.9,104.5-125.8,123.3-145.1c20-20.6,24.8-50.3,4.2-71.4
		C455.5,221,259.5,50.2,257.6,48.4C244.7,36.2,229.4,32.1,211.8,33.7z"/>
	<path class="st3" d="M211.6,29.5c-24.4,2.3-117.8,9.3-140,11.9c-8.2,1-15.7,5.3-21.1,11.4C41.3,63.5,32.7,74.6,24.4,86
		c-4.9,6.8-6.9,15-7.1,23.4C16.3,159.8,31,260.3,31.5,262c3.6,10.9,10.8,19.1,19.6,26.2c20.3,16.2,211.8,168.5,217.8,173.5
		c11.8,10,23.3,14.2,34.3,13.3c12.9-1,25.3-9,36.9-22.7c24.1-28.5,106.9-128.6,126.1-148.4c20.4-21.1,25.3-51.4,4.2-73
		c-9.7-10-210-184.6-212-186.4C245.2,32.1,229.6,27.9,211.6,29.5z M256.3,55.9c1.9,1.8,191.4,166.9,200.9,176.6
		c20.5,20.9,16.3,49.6-2.9,69.3c-18,18.5-95.6,112.3-118.2,139.1c-10.9,12.9-22.6,20.2-34.9,21c-10.5,0.7-21.6-3.5-33-13.2
		c-5.8-4.9-186.6-148.7-206.2-164.4c-8.5-6.8-15.5-14.8-19.1-25.2c-0.6-1.6-16.1-97.4-15.9-145.2c0-8.1,1.8-15.8,6.4-22.2
		C41,81,49.1,70.5,57.8,60.6c5-5.8,12.1-9.7,20-10.5c21.1-2.1,110.3-7.4,133.6-9.2C228.5,39.6,243.5,43.8,256.3,55.9z"/>
	<path class="st5" d="M201.7,16.5c-23,6.3-111.1,28.8-131.8,35c-7.7,2.3-14.2,7.7-18.2,14.5c-7,11.7-13.4,23.8-19.4,36.1
		c-3.6,7.3-4.1,15.5-2.8,23.6c7.5,48.3,38.5,142,39.3,143.5c5.3,9.8,13.5,16.5,23.1,21.7c22.1,12.1,230.9,125.4,237.5,129.2
		c13,7.6,24.7,9.7,35.1,7c12.2-3.1,22.6-12.8,31.4-27.9c18.3-31.3,80.5-141,95.5-163.1c16-23.6,15.5-53.4-8.3-70.5
		c-11-7.9-232-141.1-234.1-142.5C234.2,13.3,218.6,11.9,201.7,16.5z"/>
	<path class="st3" d="M200.4,11.1C176.8,17.6,86,40.7,64.6,47.2c-7.9,2.4-14.6,7.9-18.8,14.9c-7.2,12-13.8,24.5-20,37.1
		c-3.7,7.5-4.2,15.9-2.9,24.3c7.8,49.8,39.6,146.2,40.5,147.8c5.4,10.1,13.9,17,23.8,22.4c22.8,12.4,237.8,129.1,244.6,133.1
		c13.4,7.8,25.4,9.9,36.1,7.2c12.5-3.2,23.3-13.2,32.4-28.7c18.8-32.3,82.9-145.2,98.4-168c16.5-24.3,16-55-8.5-72.6
		c-11.3-8.1-238.9-145.3-241.1-146.8C233.9,7.8,217.8,6.3,200.4,11.1z M249,29.3c2.2,1.4,217.5,131.1,228.5,139
		c23.8,17,24.6,46,9.1,68.8c-14.5,21.3-74.6,127.2-92.3,157.5c-8.5,14.6-18.7,23.8-30.7,26.7c-10.3,2.5-21.9,0.3-34.8-7.3
		c-6.5-3.8-209.5-114-231.6-126.1c-9.6-5.2-17.8-11.9-23.2-21.5c-0.8-1.5-32.8-93.1-40.9-140.2c-1.4-7.9-1-15.9,2.5-23
		c5.7-11.9,11.9-23.6,18.7-34.8c4-6.6,10.3-11.7,17.9-13.9c20.5-5.8,107.4-26.5,130-32.3C218.8,18,234.3,19.6,249,29.3z"/>
	<path id="Traado-copiar-3_00000088817126184354403410000003819486551684479401_" class="st6" d="M100.7,508.9
		c-7.8-7.9-11.9-19.4-11.9-34.9c0-7.8-6.4-252.4-7.1-278.3c-0.3-11.2,1.5-22,7.5-31.8c0.9-1.5,68.5-77.3,107.7-108.9
		c6.6-5.3,14.2-9,22.5-9.6c14-1,28.1-1.5,42.1-1.3c8.2,0.2,16.3,3.1,22.3,8.8c16.3,15.3,81.7,82.3,99.1,99.6
		c12.8,12.7,19.6,27.3,18.6,45.5c-0.2,2.7-5.1,268.3-6.5,282.2c-3,30-29.4,45.8-58.7,43.7c-27.5-2-157.3-1-194.7-1.2
		C123.8,522.5,109.8,518.1,100.7,508.9z M204.9,209.3c20.5,20.7,53.7,20.7,74.3,0.1c20.6-20.6,20.6-54,0.1-74.6
		c-20.5-20.7-53.7-20.7-74.3-0.1C184.4,155.2,184.4,188.7,204.9,209.3z"/>
	<g class="st7">
		
			<ellipse transform="matrix(0.4998 -0.8661 0.8661 0.4998 -49.9865 204.4521)" class="st8" cx="152" cy="145.5" rx="50.1" ry="50.3"/>
	</g>
</g>
</svg>
