<?xml version="1.0" encoding="UTF-8"?>
<!-- Generated by Pixelmator Pro 3.5.7 -->
<svg width="512" height="512" viewBox="0 0 512 512" xmlns="http://www.w3.org/2000/svg">
    <path id="Traado" fill="#33d5f4" stroke="none" d="M 273.405426 480.126068 C 260.788818 480.199799 249.2146 477.043884 239.258957 468.950287 C 233.236465 464.054291 227.825912 458.399323 222.180832 453.044037 C 208.847214 440.394836 195.54451 427.71228 182.215988 415.057709 C 171.706863 405.079926 161.195633 395.106049 150.653488 385.163177 C 134.639938 370.059937 118.591606 354.994141 102.577309 339.891693 C 99.800285 337.272797 97.155602 334.512726 94.385902 331.885834 C 75.632668 314.099457 56.85067 296.341736 38.10075 278.551849 C 29.984745 270.85144 23.59622 262.049835 20.952311 250.946381 C 20.541517 249.221191 20.160755 247.448364 20.036295 245.704193 C 16.520214 196.430695 14.741615 148.154236 20.118326 98.206146 C 21.023491 89.797424 23.721647 81.839874 29.212076 75.501068 C 38.402988 64.889954 47.936981 54.516754 58.020672 44.760834 C 63.894135 39.078278 71.704163 35.428131 79.97184 35.143646 C 102.214996 34.378235 124.483513 34.059784 146.741379 34.071381 C 171.172409 34.084137 195.606461 35.078949 220.032394 34.860443 C 238.021729 34.699493 253.138092 40.170013 265.198395 53.667084 C 266.970734 55.650574 268.950775 57.448578 270.823395 59.829193 C 270.677612 60.055237 270.535675 60.286224 270.39566 60.516693 C 270.65918 60.385529 270.856171 60.257416 270.96402 60.135834 C 294.579437 56.266235 318.207886 53.876556 341.924957 55.192474 C 359.233978 56.152863 376.450348 58.833984 393.694489 60.868256 C 408.339264 62.595886 422.358246 66.84848 436.110504 71.985443 C 453.097931 78.330902 468.752808 87.000305 480.985504 100.645599 C 489.194336 109.80246 494.498962 120.561584 493.940582 133.301849 C 493.605713 140.942719 493.484436 148.735443 491.837067 156.141693 C 489.648895 165.97934 482.630463 173.005157 474.866364 178.985443 C 458.758026 191.392853 439.782013 196.863495 420.296051 200.997162 C 417.439697 201.603119 414.60614 202.316498 411.360504 203.063568 C 408.180939 201.73587 408.069702 201.759186 410.95816 203.145599 C 417.878082 210.50174 424.874054 217.787872 431.698395 225.231537 C 441.110657 235.498108 451.299988 245.220123 459.487457 256.397552 C 468.47287 268.664398 469.45575 283.052917 466.688629 298.147552 C 464.374084 310.773315 457.590088 320.053955 448.911285 328.588959 C 429.28363 347.891571 409.585175 367.122955 390.055817 386.524506 C 363.587189 412.820038 337.364044 439.36554 310.794098 465.557709 C 301.27005 474.946289 289.455383 479.542969 275.942535 480.069427 C 275.092346 480.102539 274.246552 480.121155 273.405426 480.126068 Z M 274.798004 447.680756 C 287.169098 447.852814 299.545166 442.794739 309.940582 432.520599 C 345.967133 396.914246 381.985291 361.298157 417.979645 325.659271 C 439.073669 304.773499 439.508057 276.68927 418.788239 255.54599 C 367.009521 202.709076 315.102234 149.997528 263.255035 97.227631 C 262.316833 96.272736 261.435089 95.264343 260.706207 94.213959 C 259.102356 94.428741 257.526093 94.682922 255.999191 94.999115 C 251.532135 96.29361 251.444427 95.529694 247.350754 96.73349 C 224.85881 102.202362 204.688492 111.819397 186.026535 124.743256 C 183.122299 126.754517 184.536499 129.088959 185.299973 131.409271 C 197.235489 167.68338 171.388245 203.298615 133.307785 203.044037 C 110.326988 202.890411 89.908127 187.57254 82.864418 165.20224 C 75.877251 143.011566 83.936501 118.392029 102.866371 105.442474 C 122.185616 92.226532 142.169769 91.516113 162.592941 103.147552 C 164.355103 104.151154 167.255569 105.239166 168.649582 104.48349 C 183.403748 96.485382 197.958969 88.121063 212.876144 79.706146 C 219.18132 77.34552 224.443146 74.055511 230.335129 71.651459 C 225.601288 70.522827 221.114182 69.110718 216.608566 69.044037 C 179.790527 68.499054 142.967834 68.272949 106.145668 68.055756 C 92.845947 67.977295 81.378235 72.750702 72.069496 82.249115 C 65.891273 88.553223 59.869244 95.030975 54.079266 101.692474 C 45.608528 111.438232 41.840256 122.846039 42.774578 135.811615 C 44.953251 166.045258 41.702682 197.052032 48.97575 226.532318 C 53.447933 244.659637 56.765991 259.578766 70.50309 272.348724 C 127.856613 325.664429 184.621628 379.61615 241.592941 433.342865 C 251.559708 442.742004 263.176697 447.519135 274.798004 447.680756 Z M 249.735519 381.036224 C 248.040039 381.062836 246.41861 380.39624 244.991379 379.032318 C 241.986206 376.160553 242.063522 371.949219 245.284348 368.381927 C 246.956085 366.530304 248.765503 364.803436 250.76091 362.766693 C 283.918182 328.800385 316.825684 295.084625 349.741364 261.378021 C 351.018799 260.069916 352.245697 258.659546 353.717926 257.606537 C 356.859894 255.359344 360.062622 255.668427 362.77066 258.335052 C 365.487732 261.01062 365.755524 264.203949 363.635895 267.401459 C 362.81897 268.633759 361.682159 269.665375 360.637848 270.735443 C 326.220917 306.00116 291.797333 341.261017 257.374176 376.520599 C 256.792725 377.11618 256.222321 377.722778 255.612473 378.288177 C 253.673248 380.085938 251.657043 381.006042 249.735519 381.036224 Z M 218.210129 348.092865 C 217.989594 348.086487 217.768478 348.065674 217.548019 348.034271 C 215.920776 348.010437 214.365753 347.345703 212.991379 346.032318 C 209.986206 343.160553 210.063522 338.949249 213.284348 335.381927 C 214.956085 333.530304 216.765503 331.803436 218.76091 329.766693 C 251.918228 295.800354 284.825653 262.084656 317.741364 228.378021 C 319.018799 227.069916 320.245697 225.659546 321.717926 224.606537 C 323.463776 223.35788 325.229065 222.900604 326.917145 223.196381 C 328.454529 223.297699 329.930511 223.96698 331.229645 225.204193 C 334.084839 227.92337 334.181854 232.192871 331.241364 235.493256 C 328.696777 238.349304 325.946777 241.023132 323.272614 243.762787 C 290.83197 276.997742 258.389069 310.230896 225.944504 343.462006 C 225.130997 344.295258 224.339218 345.160126 223.458176 345.917084 C 221.836716 347.310303 220.180542 348.052856 218.520676 348.092865 C 218.416931 348.095367 218.313889 348.095886 218.210129 348.092865 Z M 186.210129 315.092865 C 184.653839 315.047852 183.096649 314.381958 181.569504 313.057709 C 178.453964 310.356018 178.308365 306.210114 181.403488 302.852631 C 186.027634 297.836426 190.888443 293.039398 195.895676 287.895599 C 225.793793 257.267517 255.446381 226.892456 285.098785 196.518646 C 286.377808 195.208496 287.606537 193.840942 288.960114 192.612396 C 292.382629 189.506042 296.2677 189.383362 299.229645 192.204193 C 302.084839 194.92337 302.181854 199.192871 299.241364 202.493256 C 296.696777 205.349304 293.946777 208.023132 291.272614 210.762787 C 258.83194 243.997772 226.389114 277.230865 193.944504 310.462006 C 193.130997 311.295258 192.339218 312.160126 191.458176 312.917084 C 189.836716 314.310303 188.180542 315.052856 186.520676 315.092865 C 186.416931 315.095367 186.313889 315.095886 186.210129 315.092865 Z M 381.30191 173.079193 C 396.415375 171.251373 410.913391 169.73819 424.887848 165.114349 C 434.336456 161.988068 443.943939 159.273651 451.917145 152.991302 C 462.702667 144.492981 465.460754 137.464355 456.805817 126.184662 C 448.368225 115.188263 436.548401 109.349579 424.393707 104.061615 C 411.371674 98.396362 397.703827 94.764801 383.61441 92.819427 C 371.955902 91.209686 360.340179 88.995361 348.626129 88.174896 C 337.199799 87.374542 325.668182 87.816681 314.192535 88.094818 C 309.726715 88.203064 305.28714 89.35553 300.835114 90.032318 C 300.756226 90.041077 300.690369 90.047119 300.612457 90.055756 C 300.738098 90.148346 300.862305 90.240845 300.987457 90.338959 C 306.911591 96.752716 312.601685 102.937531 318.467926 108.950287 C 339.301697 130.304321 360.19516 151.599762 380.866364 173.04599 C 379.598541 175.125153 379.674469 175.131226 381.30191 173.079193 Z M 134.065598 172.803802 C 137.053421 172.794067 140.174408 172.203949 143.364426 171.004974 C 153.899979 167.045105 160.372955 154.299591 157.245285 143.672943 C 152.907013 128.933167 139.532288 121.737701 125.803871 127.167084 C 116.657181 130.784424 105.192589 145.134338 112.407387 157.895599 C 117.32711 167.628021 125.102127 172.832977 134.065598 172.803802 Z"/>
</svg>
