<svg enable-background="new 0 0 256 256" viewBox="0 0 256 256" xmlns="http://www.w3.org/2000/svg"><path d="m128 0c-70.7 0-128 57.3-128 128s57.3 128 128 128 128-57.3 128-128-57.3-128-128-128zm-10.7 144.5v29.1c0 3.2-2.6 5.8-5.8 5.8s-5.8-2.6-5.8-5.8v-15l-31.5 31.4c-2.3 2.3-6 2.3-8.2 0-1.1-1.1-1.7-2.6-1.7-4.1s.6-3 1.7-4.2l31.5-31.5h-15c-3.2 0-5.8-2.6-5.8-5.8s2.6-5.8 5.8-5.8h29.1c1.5 0 3 .7 4.1 1.8 1 1 1.6 2.5 1.6 4.1zm2.7-24.5c-2.3 2.3-6 2.3-8.2 0l-36.2-36.1v16.5c0 3.2-2.6 5.8-5.8 5.8s-5.8-2.6-5.8-5.8v-30.6c0-1.5.6-3 1.7-4.1s2.6-1.7 4.1-1.7h30.6c3.2 0 5.8 2.6 5.8 5.8s-2.6 5.8-5.8 5.8h-16.5l36.2 36.2c2.2 2.3 2.2 6-.1 8.2zm18.1-7.7v-29.1c0-3.2 2.7-5.9 5.9-5.9s5.9 3 5.9 5.9h.2v14.9l31.9-32.1c2.3-2.3 5.8-2.2 8 0 2.3 2.3 2.3 6 0 8.3l-32.1 32.2h15c3.2 0 5.8 2.5 5.8 5.7s-2.6 5.8-5.8 5.8h-29.1c-1.5 0-3-.6-4.1-1.7-1-1.1-1.6-2.5-1.6-4zm53.9 73.9c0 1.5-.6 3-1.7 4.1s-2.6 1.7-4.1 1.7h-30.6c-3.2 0-5.8-2.6-5.8-5.8s2.6-5.8 5.8-5.8h16.5l-36.8-36.8c-1.1-1.1-1.7-2.6-1.7-4.1s.6-3 1.7-4.1c2.3-2.3 6-2.3 8.2 0l36.8 36.8v-16.5c0-3.2 2.6-5.8 5.8-5.8s5.8 2.6 5.8 5.8v30.5z" fill="#33d5f4"/></svg>