<?xml version="1.0" encoding="UTF-8"?>
<!-- Generated by Pixelmator Pro 3.5.7 -->
<svg width="377" height="133" viewBox="0 0 377 133" xmlns="http://www.w3.org/2000/svg">
    <path id="Traado" fill="none" stroke="#00c65e" stroke-width="19" d="M 243.679993 67.789497 L 310.679993 13.028702 L 265.179993 112 L 369.679993 7"/>
    <path id="path1" fill="#000000" stroke="none" d="M 23.747999 85.8405 L 62.051998 85.8405 L 62.051998 102 L 1.67 102 L 1.67 86.705002 L 39.042999 46.738495 L 39.508499 47.470001 L -0 47.470001 L 9.18001 31.376999 L 61.254002 31.376999 L 61.254002 46.671997 L 24.213499 86.505501 L 23.747999 85.8405 Z"/>
    <path id="path2" fill="#000000" stroke="none" d="M 92.971397 103.462997 C 87.828697 103.462997 83.240196 102.642998 79.205902 101.002998 C 75.215897 99.362198 72.090401 96.990303 69.829399 93.887001 C 67.568398 90.783699 66.437897 87.015297 66.437897 82.582001 C 66.437897 77.572304 67.812202 73.493698 70.560898 70.346001 C 73.309502 67.198303 76.944901 64.804298 81.466904 63.164001 C 86.033203 61.479301 90.976402 60.371002 96.296402 59.839005 C 104.055 59.085297 109.397003 58.398201 112.322998 57.777496 C 115.292999 57.156799 116.778 56.070702 116.778 54.518997 C 116.778 54.474701 116.778 54.430298 116.778 54.386002 C 116.778 51.770302 115.514999 49.708801 112.987999 48.2015 C 110.504997 46.694199 107.025002 45.940498 102.546997 45.940498 C 97.803703 45.940498 94.168404 46.805 91.641403 48.533997 C 89.158699 50.218704 87.917397 52.812195 87.917397 56.314499 L 67.634903 56.314499 C 67.634903 50.639801 69.164398 45.851799 72.223396 41.9505 C 75.326698 38.049194 79.516197 35.100998 84.791901 33.106003 C 90.067596 31.066696 96.030403 30.046997 102.68 30.046997 C 108.887001 30.046997 114.627998 31.000198 119.903999 32.906502 C 125.18 34.768501 129.412994 37.583694 132.604996 41.352005 C 135.841995 45.1203 137.460007 49.908295 137.460007 55.716003 C 137.460007 56.647003 137.460007 57.578003 137.460007 58.509003 C 137.460007 59.395699 137.460007 60.304504 137.460007 61.235504 L 137.460007 86.239502 C 137.460007 88.057198 137.503998 89.808296 137.593002 91.492996 C 137.725998 93.133301 137.992004 94.640701 138.391006 96.014999 C 138.834 97.566704 139.388 98.852303 140.052994 99.872002 C 140.718002 100.891998 141.272995 101.600998 141.716003 102 L 121.432999 102 C 121.123001 101.690002 120.635002 101.046997 119.970001 100.071999 C 119.349998 99.096199 118.818001 97.965698 118.374001 96.68 C 117.842003 95.128304 117.443001 93.576698 117.177002 92.025002 C 116.956001 90.429001 116.845001 88.567001 116.845001 86.439003 L 121.100998 89.364998 C 119.860001 92.291 117.842003 94.818001 115.049004 96.945999 C 112.301003 99.029701 109.019997 100.648003 105.207001 101.800003 C 101.439003 102.908997 97.360397 103.462997 92.971397 103.462997 Z M 98.490898 88.035004 C 101.726997 88.035004 104.741997 87.458702 107.535004 86.306 C 110.372002 85.109001 112.678001 83.247002 114.450996 80.720001 C 116.223999 78.193001 117.111 74.890198 117.111 70.811501 L 117.111 63.695999 L 122.231003 68.683502 C 119.305 69.747498 115.914001 70.634201 112.056999 71.343498 C 108.244003 72.008499 104.431999 72.540497 100.619003 72.939499 C 96.096901 73.382797 92.705399 74.158699 90.444397 75.266998 C 88.227699 76.331001 87.1194 78.148697 87.1194 80.720001 C 87.1194 83.158302 88.072502 84.998199 89.978897 86.239502 C 91.885201 87.436501 94.722603 88.035004 98.490898 88.035004 Z"/>
    <path id="path3" fill="#000000" stroke="none" d="M 197.966003 93.621002 C 202.309998 94.064301 206.100998 94.9067 209.337006 96.148003 C 212.617996 97.345001 215.167007 99.140503 216.985001 101.535004 C 218.802002 103.884003 219.710999 107.031998 219.710999 110.977997 C 219.710999 115.543999 218.203995 119.422997 215.188995 122.614998 C 212.218994 125.850998 207.852005 128.311996 202.089005 129.996994 C 196.324997 131.681 189.343002 132.522995 181.141006 132.522995 C 169.037994 132.522995 159.662003 130.772003 153.011993 127.269997 C 146.406006 123.811996 143.102997 119.179001 143.102997 113.371002 C 143.102997 111.731003 143.279999 110.246002 143.634995 108.916 C 144.033997 107.629997 144.522003 106.522003 145.098007 105.591003 L 163.850998 108.317001 C 163.628998 108.627998 163.386002 109.093002 163.119995 109.713997 C 162.897995 110.378998 162.787003 111.198997 162.787003 112.174004 C 162.787003 114.524002 164.537994 116.275002 168.041 117.428001 C 171.587006 118.581001 176.154007 119.156998 181.740005 119.156998 C 185.684998 119.156998 189.054993 118.869003 191.848007 118.292999 C 194.684998 117.761002 196.835007 116.961998 198.298004 115.898003 C 199.804993 114.834 200.559006 113.614998 200.559006 112.240997 C 200.559006 110.246002 199.584 108.938004 197.632996 108.317001 C 195.727005 107.696999 193.509995 107.253998 190.983002 106.987999 L 164.25 104.261002 C 159.328995 103.773003 155.25 102.355003 152.014008 100.004997 C 148.778 97.655296 147.160004 94.485497 147.160004 90.495499 C 147.160004 88.012802 147.847 85.751801 149.220993 83.712502 C 150.595001 81.628799 152.169006 79.921997 153.942993 78.592003 C 155.716003 77.217697 157.201004 76.353203 158.397995 75.998497 L 168.904999 81.318497 C 168.063004 81.4515 167.065002 81.983498 165.912994 82.914497 C 164.804001 83.845497 164.25 84.931702 164.25 86.172997 C 164.25 87.414299 164.871002 88.478302 166.112 89.364998 C 167.397995 90.251701 169.725006 90.850197 173.095001 91.1605 L 197.966003 93.621002 Z M 204.947998 31.376999 L 223.102997 31.376999 L 215.720993 58.509003 C 214.347 63.651703 212.307007 68.240196 209.602997 72.274498 C 206.899002 76.264503 203.285995 79.412201 198.764008 81.717499 C 194.285995 84.022797 188.632996 85.175499 181.806 85.175499 C 174.623993 85.175499 168.395004 84.0672 163.119995 81.850502 C 157.888 79.633797 153.854004 76.508301 151.016998 72.473999 C 148.179001 68.395302 146.761002 63.585205 146.761002 58.043503 C 146.761002 52.501801 148.201004 47.625198 151.082993 43.413498 C 154.009003 39.201797 157.977005 35.921204 162.987 33.571503 C 168.041 31.221802 173.759995 30.046997 180.143997 30.046997 C 184.975998 30.046997 189.386993 30.845001 193.376999 32.441002 C 197.410995 33.992699 200.647995 36.054199 203.085999 38.625504 C 205.569 41.1968 206.854004 44.034195 206.942993 47.137497 L 203.153 48.134995 L 204.947998 31.376999 Z M 181.673004 70.080002 C 184.598999 70.080002 187.169998 69.614502 189.386993 68.683502 C 191.604004 67.708199 193.332993 66.311699 194.574005 64.494003 C 195.815002 62.632004 196.436005 60.393204 196.436005 57.777496 C 196.436005 55.2062 195.815002 53.011703 194.574005 51.194 C 193.332993 49.376297 191.604004 47.979797 189.386993 47.004501 C 187.169998 46.029205 184.598999 45.541504 181.673004 45.541504 C 178.880005 45.541504 176.352997 46.0513 174.091995 47.070999 C 171.875 48.046295 170.123993 49.464996 168.839005 51.326996 C 167.552994 53.144699 166.910004 55.361298 166.910004 57.977005 C 166.910004 60.548302 167.531006 62.742798 168.772003 64.560501 C 170.013 66.333801 171.742004 67.708199 173.959 68.683502 C 176.175995 69.614502 178.746994 70.080002 181.673004 70.080002 Z"/>
</svg>
