<?xml version="1.0" encoding="UTF-8"?>
<!-- Generated by Pixelmator Pro 3.5.7 -->
<svg width="69" height="83" viewBox="0 0 69 83" xmlns="http://www.w3.org/2000/svg">
    <g id="Agrupar">
        <path id="Traado" fill="#3bc4b2" stroke="none" d="M 34.5 65.230003 C 27.870001 65.230003 21.75 63.080002 16.790001 59.439999 L 13.52 62.709999 C 19.33 67.160004 26.610001 69.809998 34.5 69.809998 C 42.389999 69.809998 49.669998 67.160004 55.48 62.709999 L 52.209999 59.439999 C 47.25 63.080002 41.130001 65.230003 34.5 65.230003 Z"/>
        <path id="path1" fill="#3bc4b2" stroke="none" d="M 56.990002 19.290001 L 53.73 22.540001 C 56.18 26.200001 57.610001 30.610001 57.610001 35.349998 C 57.610001 40.09 56.18 44.490002 53.73 48.16 L 56.990002 51.41 C 60.240002 46.880001 62.150002 41.34 62.150002 35.349998 C 62.150002 29.360001 60.240002 23.82 56.990002 19.290001 Z"/>
        <path id="path2" fill="#3bc4b2" stroke="none" d="M 60.439999 12.650002 L 60.439999 12.650002 C 60.369999 12.57 60.299999 12.489998 60.23 12.410004 C 60.049999 12.209999 59.869999 12 59.689999 11.800003 L 59.68 11.809998 C 59.419998 11.529999 59.169998 11.25 58.91 10.979996 C 58.380001 10.449997 57.82 9.93 57.25 9.43 L 52.389999 14.279999 C 47.560001 10.209999 41.32 7.739998 34.5 7.739998 C 27.68 7.739998 21.440001 10.209999 16.620001 14.290001 L 11.76 9.440002 C 11.19 9.940002 10.64 10.449997 10.11 10.989998 C 9.84 11.260002 9.59 11.540001 9.34 11.82 L 9.32 11.800003 C 9.13 12 8.95 12.209999 8.77 12.419998 C 8.7 12.5 8.63 12.57 8.56 12.639999 L 8.56 12.639999 C 3.23 18.709999 0 26.650002 0 35.349998 C 0 44.049999 3.23 52 8.56 58.060001 L 8.58 58.09 C 8.64 58.16 8.7 58.23 8.77 58.299999 L 8.79 58.330002 L 8.81 58.360001 L 8.83 58.389999 L 8.85 58.419998 L 8.87 58.450001 L 9.02 58.610001 L 9.16 58.759998 L 9.18 58.790001 L 9.27 58.880001 C 9.34 58.959999 9.42 59.040001 9.49 59.119999 L 9.53 59.16 C 9.62 59.25 9.7 59.34 9.79 59.43 L 9.79 59.43 L 9.8 59.439999 L 9.82 59.459999 C 9.91 59.549999 10 59.650002 10.09 59.740002 L 10.11 59.759998 L 10.14 59.790001 L 10.16 59.82 L 10.19 59.84 L 10.22 59.869999 L 10.25 59.900002 L 10.28 59.919998 L 10.31 59.950001 L 10.33 59.970001 L 10.36 59.990002 L 10.39 60.009998 L 10.42 60.029999 L 10.45 60.049999 L 10.48 60.07 L 10.51 60.09 L 10.54 60.110001 L 10.57 60.130001 L 10.6 60.150002 L 10.63 60.169998 L 10.66 60.189999 L 10.69 60.209999 L 10.72 60.23 L 10.75 60.25 L 10.75 60.25 L 10.78 60.27 L 10.81 60.290001 L 10.84 60.310001 L 10.87 60.330002 L 10.87 60.330002 L 10.9 60.349998 L 10.93 60.369999 L 10.93 60.369999 L 10.96 60.389999 L 10.99 60.41 L 11.02 60.43 L 11.05 60.450001 L 11.08 60.470001 L 11 60.580002 L 11.03 60.599998 L 11.06 60.619999 L 11.09 60.639999 L 11.12 60.66 L 11.15 60.68 L 11.18 60.700001 L 11.21 60.720001 L 11.24 60.740002 L 11.27 60.759998 L 11.3 60.779999 L 11.33 60.799999 L 11.36 60.82 L 11.39 60.84 L 11.42 60.860001 L 11.42 60.860001 L 11.45 60.880001 L 11.48 60.900002 L 11.51 60.919998 L 11.54 60.939999 L 11.57 60.959999 L 11.6 60.98 L 11.6 60.98 L 11.63 61 L 11.66 61.02 L 11.69 61.040001 L 11.72 61.060001 L 11.75 61.080002 L 11.78 61.099998 L 11.81 61.119999 L 11.84 61.139999 L 11.87 61.16 L 15.12 57.919998 L 15.12 57.919998 L 16.73 56.310001 C 21.549999 60.400002 27.790001 62.860001 34.610001 62.860001 C 41.43 62.860001 47.669998 60.389999 52.490002 56.310001 L 54.099998 57.919998 L 54.099998 57.919998 L 57.349998 61.16 L 57.380001 61.139999 L 57.41 61.119999 L 57.439999 61.099998 L 57.470001 61.080002 L 57.5 61.060001 L 57.529999 61.040001 L 57.560001 61.02 L 57.59 61 L 57.619999 60.98 L 57.619999 60.98 L 57.650002 60.959999 L 57.68 60.939999 L 57.709999 60.919998 L 57.740002 60.900002 L 57.77 60.880001 L 57.799999 60.860001 L 57.799999 60.860001 L 57.830002 60.84 L 57.860001 60.82 L 57.889999 60.799999 L 57.919998 60.779999 L 57.950001 60.759998 L 57.98 60.740002 L 58.009998 60.720001 L 58.040001 60.700001 L 58.07 60.68 L 58.099998 60.66 L 58.130001 60.639999 L 58.16 60.619999 L 58.189999 60.599998 L 58 60.580002 L 58.029999 60.560001 L 58.060001 60.540001 L 58.09 60.52 L 58.119999 60.5 L 58.150002 60.48 L 58.18 60.459999 L 58.18 60.459999 L 58.209999 60.439999 L 58.240002 60.419998 L 58.240002 60.419998 L 58.27 60.400002 L 58.299999 60.380001 L 58.330002 60.360001 L 58.360001 60.34 L 58.360001 60.34 L 58.389999 60.32 L 58.419998 60.299999 L 58.450001 60.279999 L 58.48 60.259998 L 58.509998 60.240002 L 58.540001 60.220001 L 58.57 60.200001 L 58.599998 60.18 L 58.630001 60.16 L 58.66 60.139999 L 58.689999 60.119999 L 58.720001 60.099998 L 58.75 60.080002 L 58.779999 60.060001 L 58.810001 60.040001 L 58.84 60.009998 L 58.869999 59.990002 L 58.889999 59.959999 L 58.919998 59.93 L 58.950001 59.91 L 58.970001 59.880001 L 59 59.849998 L 59.029999 59.830002 C 59.119999 59.740002 59.209999 59.650002 59.299999 59.549999 L 59.32 59.529999 L 59.330002 59.52 L 59.330002 59.52 C 59.419998 59.43 59.5 59.34 59.59 59.25 L 59.630001 59.209999 C 59.700001 59.130001 59.779999 59.049999 59.849998 58.970001 L 59.939999 58.880001 L 59.959999 58.849998 L 60.099998 58.700001 L 60.25 58.540001 L 60.27 58.509998 L 60.290001 58.48 L 60.310001 58.450001 L 60.330002 58.419998 L 60.349998 58.389999 C 60.41 58.32 60.48 58.25 60.540001 58.18 L 60.560001 58.150002 C 65.769997 52 69 44.049999 69 35.349998 C 69 26.650002 65.769997 18.709999 60.439999 12.650002 Z M 34.5 12.270004 C 40.07 12.270004 45.16 14.25 49.150002 17.529999 L 34.5 32.150002 L 19.85 17.520004 C 23.84 14.25 28.93 12.270004 34.5 12.270004 Z M 13.41 53.209999 L 11.8 54.82 C 7.3 49.59 4.58 42.790001 4.58 35.349998 C 4.58 27.91 7.3 21.120003 11.8 15.889999 L 22.799999 26.879997 L 31.290001 35.360001 L 27.280001 39.360001 L 27.280001 39.360001 L 16.629999 50 L 13.41 53.209999 Z M 34.5 58.439999 C 28.93 58.439999 23.83 56.470001 19.84 53.200001 L 26.02 47.029999 L 26.02 47.029999 L 34.5 38.560001 L 39.139999 43.189999 L 49.16 53.200001 C 45.169998 56.470001 40.07 58.439999 34.5 58.439999 Z M 57.200001 54.82 L 55.59 53.209999 L 52.369999 50 L 41.709999 39.349998 L 41.709999 39.349998 L 37.700001 35.349998 L 46.189999 26.870003 L 57.189999 15.879997 C 61.689999 21.110001 64.410004 27.91 64.410004 35.34 C 64.419998 42.790001 61.700001 49.59 57.200001 54.82 Z"/>
        <path id="path3" fill="#3bc4b2" stroke="none" d="M 12.01 19.290001 C 8.76 23.82 6.85 29.360001 6.85 35.349998 C 6.85 41.34 8.76 46.889999 12.01 51.41 L 15.27 48.16 C 12.82 44.490002 11.39 40.09 11.39 35.349998 C 11.39 30.610001 12.82 26.209999 15.27 22.540001 L 12.01 19.290001 Z"/>
        <path id="path4" fill="#3bc4b2" stroke="none" d="M 34.5 5.470001 C 41.130001 5.470001 47.25 7.620003 52.209999 11.260002 L 55.48 8 C 49.669998 3.540001 42.389999 0.900002 34.5 0.900002 C 26.610001 0.900002 19.33 3.550003 13.52 8 L 16.790001 11.270004 C 21.75 7.629997 27.870001 5.470001 34.5 5.470001 Z"/>
        <path id="path5" fill="#3bc4b2" stroke="none" d="M 20.780001 69.379997 L 34.5 83.080002 L 48.220001 69.379997 C 43.98 71.089996 39.349998 72.029999 34.5 72.029999 C 29.65 72.019997 25.02 71.080002 20.780001 69.379997 Z"/>
    </g>
</svg>
