<?xml version="1.0" encoding="UTF-8"?>
<svg xmlns="http://www.w3.org/2000/svg" viewBox="0 0 275.098 365.767">
  <defs>
    <style>
      .cls-1 {
        isolation: isolate;
      }

      .cls-2 {
        fill: #f7f7ee;
        stroke-width: 0px;
      }
    </style>
  </defs>
  <g id="FINAL" class="cls-1">
    <g id="FINAL-2" data-name="FINAL">
      <g id="_.engineer" data-name=".engineer">
        <g>
          <path class="cls-2" d="M258.711,75.933c0,15.385-.993,34.244-19.366,34.244-15.394,0-21.849-14.392-37.739-33.251-14.401-16.874-33.767-37.222-64.057-37.222-23.339,0-47.174,13.399-47.174,41.192,0,75.933,184.723,42.185,184.723,169.236,0,67.496-62.567,115.636-147.48,115.636-50.153,0-100.803-14.889-116.693-39.703-8.442-13.4-9.932-29.777-9.932-44.17,0-6.452-.993-12.904-.993-18.859,0-15.385,9.435-22.829,18.87-22.829,16.883,0,20.359,18.363,46.181,45.659,16.883,17.867,39.229,38.214,74.485,38.214,14.401,0,30.788-3.474,41.712-12.903,8.938-7.941,16.883-19.852,16.883-35.733,0-77.918-184.227-50.125-184.227-165.762C13.904,49.133,69.52,0,150.46,0c37.739,0,76.968,9.926,95.837,27.792,9.435,9.43,12.414,31.266,12.414,48.14Z"/>
          <path class="cls-2" d="M107.367,79.496c0-7.831,2.364-14.354,7.101-19.578,4.729-5.216,11.34-7.831,19.834-7.831s15.014,2.615,19.589,7.831c4.568,5.224,6.856,11.747,6.856,19.578,0,7.511-2.288,13.873-6.856,19.089-4.576,5.216-11.103,7.832-19.589,7.832s-15.105-2.616-19.834-7.832c-4.737-5.216-7.101-11.578-7.101-19.089Z"/>
          <path class="cls-2" d="M102.68,282.858l-.787-12.387,59.412-8.061c-.526-7.207-3.019-13.14-7.476-17.793-4.46-4.651-10.623-6.98-18.492-6.98-8.133,0-14.853,2.919-20.165,8.749-5.312,5.834-7.967,14.191-7.967,25.069v4.326c.916,10.489,4.359,18.452,10.328,23.889,5.967,5.441,14.131,8.159,24.493,8.159,5.508,0,10.491-.916,14.951-2.752,4.457-1.834,7.998-3.8,10.623-5.899,1.441.919,2.588,2,3.443,3.244.852,1.248,1.279,2.655,1.279,4.227,0,2.492-1.411,4.817-4.23,6.98-2.822,2.162-6.56,3.901-11.213,5.21-4.657,1.308-9.87,1.966-15.64,1.966-10.101,0-18.855-1.837-26.263-5.505-7.411-3.668-13.116-9.143-17.115-16.417-4.002-7.275-6-16.154-6-26.642,0-7.471,1.082-14.122,3.246-19.956,2.164-5.831,5.179-10.78,9.05-14.845,3.867-4.061,8.49-7.177,13.869-9.339,5.376-2.163,11.213-3.245,17.509-3.245,7.998,0,15.05,1.706,21.148,5.112,6.098,3.41,10.884,8.159,14.361,14.255,3.473,6.095,5.213,13.075,5.213,20.94,0,2.885-.658,4.949-1.967,6.193-1.312,1.248-3.147,2-5.508,2.261l-66.101,9.241Z"/>
        </g>
      </g>
    </g>
  </g>
</svg>